<svg xmlns="http://www.w3.org/2000/svg" xmlns:xlink="http://www.w3.org/1999/xlink" id="Layer_1" data-name="Layer 1" viewBox="0 0 578.5 371.1"><defs><style>.cls-1,.cls-10,.cls-11,.cls-17,.cls-18,.cls-19,.cls-20,.cls-21,.cls-22,.cls-3,.cls-4,.cls-9{fill:none;}.cls-2{fill:#f6f9fc;}.cls-10,.cls-17,.cls-3{stroke:#ec5228;}.cls-17,.cls-19,.cls-21,.cls-3,.cls-4{stroke-miterlimit:10;}.cls-17,.cls-18,.cls-3{stroke-width:4px;}.cls-4{stroke:#fe6703;}.cls-5{fill:#fb8206;}.cls-6{fill:#ec5228;}.cls-7{fill:#ddd;}.cls-8{fill:#ffc2b6;}.cls-9{stroke:#fb8206;}.cls-10,.cls-11,.cls-17,.cls-18,.cls-20,.cls-21,.cls-22,.cls-9{stroke-linecap:round;}.cls-10,.cls-11,.cls-18,.cls-20,.cls-22,.cls-9{stroke-linejoin:round;}.cls-11{stroke:#024163;}.cls-12{fill:#ffe3d4;}.cls-13{fill:#ffd8d2;}.cls-14{fill:#189bd6;}.cls-15,.cls-24,.cls-29{fill:#fff;}.cls-15{opacity:0.2;}.cls-15,.cls-28,.cls-29{isolation:isolate;}.cls-16{fill:#f50;}.cls-18,.cls-20,.cls-22{stroke:#fe7a5a;}.cls-19{stroke:#ffd8d2;}.cls-21{stroke:#ffe3d4;}.cls-22{stroke-width:2px;}.cls-23{clip-path:url(#clip-path);}.cls-25{opacity:0.48;}.cls-26{fill:#ffffab;}.cls-27{fill:#fe7a5a;}.cls-28{fill:#999;opacity:0.58;}.cls-29{opacity:0.46;}.cls-30{fill:#0083c8;}.cls-31{opacity:0;}.cls-32{fill:#ff4201;fill-rule:evenodd;}</style><clipPath id="clip-path"><path class="cls-1" d="M49.8,12.2H530A27.74,27.74,0,0,1,557.8,40V327.7A27.74,27.74,0,0,1,530,355.5H49.8A27.74,27.74,0,0,1,22,327.7V40A27.8,27.8,0,0,1,49.8,12.2Z"></path></clipPath></defs><path class="cls-2" d="M49.8,12.2H530A27.74,27.74,0,0,1,557.8,40V327.7A27.74,27.74,0,0,1,530,355.5H49.8A27.74,27.74,0,0,1,22,327.7V40A27.8,27.8,0,0,1,49.8,12.2Z"></path><polygon class="cls-3" points="449.9 287.7 457.8 275 442.9 274.5 428 274 435 287.2 442 300.3 449.9 287.7"></polygon><polygon class="cls-4" points="457.1 284.7 465.6 271.2 449.7 270.6 433.8 269.9 441.1 284.1 448.5 298.2 457.1 284.7"></polygon><path class="cls-5" d="M303.9,278.1H292.5a11.39,11.39,0,0,1-11.4-11.4h0a14.46,14.46,0,0,1,.4-2.9h5.3c.2,0,.5.1.7.1a5.7,5.7,0,0,0,2.1,7.7,5.92,5.92,0,0,0,2.9.7h11.4a5.72,5.72,0,0,0,1-11.4h-5a14.2,14.2,0,0,0-4.6-5.7h8.6A11.38,11.38,0,0,1,314.8,267a11.52,11.52,0,0,1-10.9,11.1Z"></path><path class="cls-6" d="M279.5,272.4h-4a5.71,5.71,0,0,1,0-11.4h11.4a5.7,5.7,0,0,1,5.7,5.7h0a5.19,5.19,0,0,1-.7,2.7,1.7,1.7,0,0,0,.7.1h5.3a11.24,11.24,0,0,0-7.9-13.8h0a10.55,10.55,0,0,0-3.1-.4H275.5a11.37,11.37,0,0,0-1.3,22.7h9.9A12.58,12.58,0,0,1,279.5,272.4Z"></path><path class="cls-7" d="M498.9,171.7l-3.8-3.8a5.37,5.37,0,0,1-.1-7.6h0l.1-.1a4.44,4.44,0,0,1,1.1-.8l1.8,1.8c.1.1.1.2.2.3a1.9,1.9,0,0,0-1.1.7,2.6,2.6,0,0,0,0,3.8h0l3.8,3.8a2.69,2.69,0,0,0,3.8-.1,2.66,2.66,0,0,0,0-3.7l-1.4-1.4a6.92,6.92,0,0,0,.4-3.5l2.9,2.9a5.44,5.44,0,0,1-7.7,7.7Z"></path><path class="cls-8" d="M492.6,161.6l-1.4-1.4a2.69,2.69,0,0,1,3.6-4c.1.1.2.1.2.2l3.8,3.8a2.6,2.6,0,0,1,0,3.8,2.92,2.92,0,0,1-1.2.7c.1.1.1.2.2.3l1.8,1.8a5.38,5.38,0,0,0,1.9-7.4,8.65,8.65,0,0,0-.7-1l-.1-.1-3.8-3.8a5.5,5.5,0,0,0-7.7.2,5.31,5.31,0,0,0,0,7.4l2.9,2.9A8,8,0,0,1,492.6,161.6Z"></path><path class="cls-9" d="M272.1,53.9c-5,0-4.1-8.8-10.4-8.8"></path><path class="cls-9" d="M293,53.9c-5,0-4.1-8.8-10.4-8.8"></path><path class="cls-9" d="M272.1,53.9c5,0,4.1-8.8,10.4-8.8"></path><path class="cls-9" d="M303.4,45.1"></path><path class="cls-9" d="M293,53.9c5,0,4.1-8.8,10.4-8.8"></path><path class="cls-9" d="M313.8,53.9c-5,0-4.1-8.8-10.4-8.8"></path><path class="cls-9" d="M334.6,53.9c-5,0-4.1-8.8-10.4-8.8"></path><path class="cls-9" d="M313.8,53.9c5,0,4.1-8.8,10.4-8.8"></path><path class="cls-9" d="M345.1,45.1"></path><path class="cls-9" d="M334.6,53.9c5,0,4.1-8.8,10.4-8.8"></path><path class="cls-10" d="M293,62.7c-5,0-4.1-8.8-10.4-8.8"></path><path class="cls-10" d="M313.8,62.7c-5,0-4.1-8.8-10.4-8.8"></path><path class="cls-10" d="M293,62.7c5,0,4.1-8.8,10.4-8.8"></path><path class="cls-11" d="M324.2,53.9"></path><path class="cls-10" d="M313.8,62.7c5,0,4.1-8.8,10.4-8.8"></path><polygon class="cls-12" points="162.3 72.8 172.8 78.9 162.3 85 162.3 72.8"></polygon><polygon class="cls-12" points="177.5 72.8 188.1 78.9 177.5 85 177.5 72.8"></polygon><polygon class="cls-12" points="192.8 72.8 203.3 78.9 192.8 85 192.8 72.8"></polygon><polygon class="cls-13" points="428.9 72.8 418.3 78.9 428.9 85 428.9 72.8"></polygon><polygon class="cls-13" points="413.6 72.8 403.1 78.9 413.6 85 413.6 72.8"></polygon><polygon class="cls-13" points="398.4 72.8 387.8 78.9 398.4 85 398.4 72.8"></polygon><path class="cls-6" d="M389.7,346.8a.47.47,0,0,1-.5.5h0c-.3-.1-.5-.3-.4-.6h0a.43.43,0,0,1,.4-.4c.2-.1.5.2.5.5Z"></path><path class="cls-6" d="M393.2,346.8a.55.55,0,1,1-.6-.5h0A.46.46,0,0,1,393.2,346.8Z"></path><path class="cls-6" d="M396.7,346.8c0,.3-.2.5-.6.5s-.5-.2-.5-.6.2-.5.6-.5h0a.56.56,0,0,1,.5.6Z"></path><path class="cls-6" d="M400.2,346.8a.55.55,0,1,1-.6-.5h0A.46.46,0,0,1,400.2,346.8Z"></path><path class="cls-6" d="M403.6,346.8c0,.3-.2.5-.6.5s-.5-.2-.5-.6.2-.5.6-.5h0a.47.47,0,0,1,.5.6Z"></path><path class="cls-6" d="M407.1,346.8a.55.55,0,1,1-.6-.5h0C406.9,346.2,407.1,346.4,407.1,346.8Z"></path><path class="cls-6" d="M410.6,346.8c0,.3-.2.5-.6.5s-.5-.2-.5-.6.2-.5.6-.5h0c.3,0,.5.2.5.6Z"></path><path class="cls-6" d="M414.1,346.8a.55.55,0,1,1-.6-.5h0C413.9,346.2,414.1,346.4,414.1,346.8Z"></path><path class="cls-6" d="M389.7,343.4a.47.47,0,0,1-.5.5h0c-.3-.1-.5-.3-.4-.6h0a.43.43,0,0,1,.4-.4A.54.54,0,0,1,389.7,343.4Z"></path><path class="cls-6" d="M393.2,343.4a.55.55,0,1,1-.6-.5h0A.56.56,0,0,1,393.2,343.4Z"></path><path class="cls-6" d="M396.7,343.4a.55.55,0,1,1-.6-.5h0a.56.56,0,0,1,.6.5Z"></path><path class="cls-6" d="M400.2,343.4a.55.55,0,1,1-.6-.5h0A.56.56,0,0,1,400.2,343.4Z"></path><path class="cls-6" d="M403.6,343.4a.55.55,0,1,1-.6-.5h0c.4,0,.6.2.6.5Z"></path><path class="cls-6" d="M407.1,343.4a.55.55,0,1,1-.6-.5h0C406.9,342.9,407.1,343.1,407.1,343.4Z"></path><path class="cls-6" d="M410.6,343.4a.55.55,0,1,1-.6-.5h0c.4,0,.6.2.6.5Z"></path><path class="cls-6" d="M414.1,343.4a.55.55,0,1,1-.6-.5h0C413.9,342.9,414.1,343.1,414.1,343.4Z"></path><path class="cls-6" d="M389.7,340.1a.47.47,0,0,1-.5.5h0c-.3-.1-.5-.3-.4-.6h0a.43.43,0,0,1,.4-.4A.64.64,0,0,1,389.7,340.1Z"></path><path class="cls-6" d="M393.2,340.1c0,.3-.2.5-.6.5a.47.47,0,0,1-.5-.5.58.58,0,0,1,.6-.6c.2.1.5.3.5.6Z"></path><path class="cls-6" d="M396.7,340.1a.55.55,0,0,1-1.1.1v-.1a.56.56,0,0,1,.6-.5A1.21,1.21,0,0,1,396.7,340.1Z"></path><path class="cls-6" d="M400.2,340.1c0,.3-.2.5-.6.5a.47.47,0,0,1-.5-.5.58.58,0,0,1,.6-.6c.2.1.5.3.5.6Z"></path><path class="cls-6" d="M403.6,340.1a.55.55,0,1,1-1.1.1v-.1a.56.56,0,0,1,.6-.5C403.4,339.7,403.6,339.9,403.6,340.1Z"></path><path class="cls-6" d="M407.1,340.1c0,.3-.2.5-.6.5a.47.47,0,0,1-.5-.5.56.56,0,0,1,.5-.6q.6.15.6.6Z"></path><path class="cls-6" d="M410.6,340.1a.55.55,0,0,1-1.1.1v-.1a.56.56,0,0,1,.6-.5C410.4,339.7,410.6,339.9,410.6,340.1Z"></path><path class="cls-6" d="M414.1,340.1c0,.3-.2.5-.6.5a.47.47,0,0,1-.5-.5.56.56,0,0,1,.5-.6q.6.15.6.6Z"></path><path class="cls-6" d="M389.7,336.8a.47.47,0,0,1-.5.5h0a.44.44,0,0,1-.6-.4c0-.3.1-.6.4-.6h.2a.54.54,0,0,1,.5.5Z"></path><path class="cls-6" d="M393.2,336.8a.55.55,0,1,1-.6-.5h0a.56.56,0,0,1,.6.5Z"></path><path class="cls-6" d="M396.7,336.8a.55.55,0,1,1-.6-.5h0a.56.56,0,0,1,.6.5Z"></path><path class="cls-6" d="M400.2,336.8a.63.63,0,0,1-.5.6.56.56,0,0,1-.6-.5.58.58,0,0,1,.6-.6h0A.54.54,0,0,1,400.2,336.8Z"></path><path class="cls-6" d="M403.6,336.8a.55.55,0,1,1-.6-.5h0c.4,0,.6.2.6.5Z"></path><path class="cls-6" d="M407.1,336.8a.55.55,0,1,1-.6-.5h0c.4,0,.6.2.6.5Z"></path><path class="cls-6" d="M410.6,336.8a.55.55,0,1,1-1.1.1.56.56,0,0,1,.5-.6h0c.4,0,.6.2.6.5Z"></path><path class="cls-6" d="M414.1,336.8a.55.55,0,1,1-.6-.5h0c.4,0,.6.2.6.5Z"></path><path class="cls-6" d="M389.7,333.6a.47.47,0,0,1-.5.5h0c-.3-.1-.5-.4-.4-.6a.43.43,0,0,1,.4-.4c.2-.1.5.2.5.5Z"></path><path class="cls-6" d="M393.2,333.6a.55.55,0,1,1-.6-.5h0A.5.5,0,0,1,393.2,333.6Z"></path><path class="cls-6" d="M396.7,333.6c0,.3-.2.5-.6.5s-.5-.2-.5-.6.2-.5.6-.5h0A.65.65,0,0,1,396.7,333.6Z"></path><path class="cls-6" d="M400.2,333.6a.55.55,0,1,1-.6-.5h0A.5.5,0,0,1,400.2,333.6Z"></path><path class="cls-14" d="M403.6,333.6c0,.3-.2.5-.6.5s-.5-.2-.5-.6.2-.5.6-.5h0A.5.5,0,0,1,403.6,333.6Z"></path><path class="cls-14" d="M407.1,333.6a.55.55,0,1,1-.6-.5h0A.47.47,0,0,1,407.1,333.6Z"></path><path class="cls-14" d="M410.6,333.6c0,.3-.2.5-.6.5s-.5-.2-.5-.6.2-.5.6-.5h0A.56.56,0,0,1,410.6,333.6Z"></path><path class="cls-14" d="M414.1,333.6a.55.55,0,1,1-.6-.5h0A.47.47,0,0,1,414.1,333.6Z"></path><path class="cls-6" d="M389.7,330.3a.47.47,0,0,1-.5.5h0a.56.56,0,0,1-.6-.5.62.62,0,0,1,.4-.6h.2a.56.56,0,0,1,.5.6Z"></path><path class="cls-6" d="M393.2,330.3a.47.47,0,0,1-.5.5.56.56,0,0,1-.6-.5.63.63,0,0,1,.5-.6h0a.58.58,0,0,1,.6.6Z"></path><path class="cls-6" d="M396.7,330.3a.56.56,0,0,1-.6.5c-.2,0-.4-.2-.5-.5a.63.63,0,0,1,.5-.6h0a.58.58,0,0,1,.6.6Z"></path><path class="cls-6" d="M400.2,330.3a.5.5,0,0,1-1,0h0a.63.63,0,0,1,.5-.6h0a.65.65,0,0,1,.5.6Z"></path><path class="cls-14" d="M403.6,330.3a.56.56,0,0,1-.6.5c-.2,0-.4-.2-.5-.5a.56.56,0,0,1,.5-.6h0a.53.53,0,0,1,.6.6Z"></path><path class="cls-14" d="M407.1,330.3c0,.3-.2.5-.6.5a.47.47,0,0,1-.5-.5.63.63,0,0,1,.5-.6h0a.53.53,0,0,1,.6.6Z"></path><path class="cls-14" d="M410.6,330.3a.47.47,0,0,1-.5.5h0a.55.55,0,1,1-.1-1.1h.1A.56.56,0,0,1,410.6,330.3Z"></path><path class="cls-14" d="M414.1,330.3c0,.3-.2.5-.6.5a.47.47,0,0,1-.5-.5.63.63,0,0,1,.5-.6h0a.53.53,0,0,1,.6.6Z"></path><path class="cls-6" d="M389.7,327a.47.47,0,0,1-.5.5h0c-.3-.1-.5-.3-.4-.6h0a.43.43,0,0,1,.4-.4C389.4,326.4,389.7,326.7,389.7,327Z"></path><path class="cls-6" d="M393.2,327a.55.55,0,1,1-.6-.5h0A.5.5,0,0,1,393.2,327Z"></path><path class="cls-6" d="M396.7,327a.55.55,0,1,1-.6-.5h0a.5.5,0,0,1,.6.5Z"></path><path class="cls-6" d="M400.2,327a.55.55,0,1,1-.6-.5h0A.5.5,0,0,1,400.2,327Z"></path><path class="cls-14" d="M403.6,327a.55.55,0,1,1-.6-.5h0a.47.47,0,0,1,.6.5Z"></path><path class="cls-14" d="M407.1,327a.55.55,0,1,1-.6-.5h0A.47.47,0,0,1,407.1,327Z"></path><path class="cls-14" d="M410.6,327a.55.55,0,1,1-.6-.5h0a.47.47,0,0,1,.6.5Z"></path><path class="cls-14" d="M414.1,327a.55.55,0,1,1-.6-.5h0A.47.47,0,0,1,414.1,327Z"></path><path class="cls-6" d="M389.7,323.7a.47.47,0,0,1-.5.5h0a.56.56,0,0,1-.6-.5.58.58,0,0,1,.6-.6h0a.56.56,0,0,1,.5.6Z"></path><path class="cls-6" d="M393.2,323.7a.56.56,0,0,1-.5.6.58.58,0,0,1-.6-.6.54.54,0,0,1,.5-.5.46.46,0,0,1,.6.5Z"></path><path class="cls-6" d="M396.7,323.7a.55.55,0,1,1-1.1.1v-.1a.47.47,0,0,1,.5-.5h0a.46.46,0,0,1,.6.5Z"></path><path class="cls-6" d="M400.2,323.7a.56.56,0,0,1-.5.6.58.58,0,0,1-.6-.6.54.54,0,0,1,.5-.5.46.46,0,0,1,.6.5Z"></path><path class="cls-14" d="M403.6,323.7a.55.55,0,1,1-1.1.1v-.1a.47.47,0,0,1,.5-.5h0c.4-.1.6.1.6.5Z"></path><path class="cls-14" d="M407.1,323.7a.58.58,0,0,1-.6.6c-.3,0-.5-.2-.5-.6a.54.54,0,0,1,.5-.5c.4-.1.6.1.6.5Z"></path><path class="cls-14" d="M410.6,323.7a.55.55,0,0,1-1.1.1v-.1a.47.47,0,0,1,.5-.5h0c.4-.1.6.1.6.5Z"></path><path class="cls-14" d="M414.1,323.7a.58.58,0,0,1-.6.6c-.3,0-.5-.2-.5-.6a.54.54,0,0,1,.5-.5c.4-.1.6.1.6.5Z"></path><path class="cls-5" d="M403.6,333.6c0,.3-.2.5-.6.5s-.5-.2-.5-.6.2-.5.6-.5h0A.5.5,0,0,1,403.6,333.6Z"></path><path class="cls-5" d="M407.1,333.6a.55.55,0,1,1-.6-.5h0A.47.47,0,0,1,407.1,333.6Z"></path><path class="cls-5" d="M410.6,333.6c0,.3-.2.5-.6.5s-.5-.2-.5-.6.2-.5.6-.5h0A.56.56,0,0,1,410.6,333.6Z"></path><path class="cls-5" d="M414.1,333.6a.55.55,0,1,1-.6-.5h0A.47.47,0,0,1,414.1,333.6Z"></path><path class="cls-5" d="M417.6,333.6a.47.47,0,0,1-.5.5h0a.47.47,0,0,1-.5-.5h0a.47.47,0,0,1,.5-.5h0c.3-.1.5.2.5.5Z"></path><path class="cls-5" d="M421.1,333.6a.47.47,0,0,1-.5.5.58.58,0,0,1-.6-.6c0-.3.2-.5.6-.5h0a.56.56,0,0,1,.5.6Z"></path><path class="cls-5" d="M424.6,333.6a.47.47,0,0,1-.5.5.58.58,0,0,1-.6-.6c0-.3.2-.5.6-.5h0a.56.56,0,0,1,.5.6Z"></path><path class="cls-5" d="M428.1,333.6a.47.47,0,0,1-.5.5.58.58,0,0,1-.6-.6c0-.3.2-.5.6-.5h0a.56.56,0,0,1,.5.6Z"></path><path class="cls-5" d="M403.6,330.3a.56.56,0,0,1-.6.5c-.2,0-.4-.2-.5-.5a.56.56,0,0,1,.5-.6h0a.53.53,0,0,1,.6.6Z"></path><path class="cls-5" d="M407.1,330.3c0,.3-.2.5-.6.5a.47.47,0,0,1-.5-.5.63.63,0,0,1,.5-.6h0a.53.53,0,0,1,.6.6Z"></path><path class="cls-5" d="M410.6,330.3a.47.47,0,0,1-.5.5h0a.55.55,0,1,1-.1-1.1h.1A.56.56,0,0,1,410.6,330.3Z"></path><path class="cls-5" d="M414.1,330.3c0,.3-.2.5-.6.5a.47.47,0,0,1-.5-.5.63.63,0,0,1,.5-.6h0a.53.53,0,0,1,.6.6Z"></path><path class="cls-5" d="M417.6,330.3a.47.47,0,0,1-.5.5h0a.55.55,0,0,1-.1-1.1h.1A.56.56,0,0,1,417.6,330.3Z"></path><path class="cls-5" d="M421.1,330.3a.5.5,0,1,1-1,0h0a.63.63,0,0,1,.5-.6h0a.56.56,0,0,1,.5.6Z"></path><path class="cls-5" d="M424.6,330.3a.47.47,0,0,1-.5.5h0a.55.55,0,0,1-.1-1.1h.1A.56.56,0,0,1,424.6,330.3Z"></path><path class="cls-5" d="M428.1,330.3a.56.56,0,0,1-.6.5c-.2,0-.4-.2-.5-.5a.63.63,0,0,1,.5-.6h0a.53.53,0,0,1,.6.6Z"></path><path class="cls-5" d="M403.6,327a.55.55,0,1,1-.6-.5h0a.47.47,0,0,1,.6.5Z"></path><path class="cls-5" d="M407.1,327a.55.55,0,1,1-.6-.5h0A.47.47,0,0,1,407.1,327Z"></path><path class="cls-5" d="M410.6,327a.55.55,0,1,1-.6-.5h0a.47.47,0,0,1,.6.5Z"></path><path class="cls-5" d="M414.1,327a.55.55,0,1,1-.6-.5h0A.47.47,0,0,1,414.1,327Z"></path><path class="cls-5" d="M417.6,327a.55.55,0,1,1-.6-.5h0a.47.47,0,0,1,.6.5Z"></path><path class="cls-5" d="M421.1,327a.47.47,0,0,1-.5.5.56.56,0,0,1-.5-.6c0-.2.2-.4.5-.5A.56.56,0,0,1,421.1,327Z"></path><path class="cls-5" d="M424.6,327a.47.47,0,0,1-.5.5h0a.55.55,0,0,1-.1-1.1h.1a.56.56,0,0,1,.5.6Z"></path><path class="cls-5" d="M428.1,327a.47.47,0,0,1-.5.5.56.56,0,0,1-.5-.6c0-.2.2-.4.5-.5A.56.56,0,0,1,428.1,327Z"></path><path class="cls-5" d="M403.6,323.7a.55.55,0,1,1-1.1.1v-.1a.47.47,0,0,1,.5-.5h0c.4-.1.6.1.6.5Z"></path><path class="cls-5" d="M407.1,323.7a.58.58,0,0,1-.6.6c-.3,0-.5-.2-.5-.6a.54.54,0,0,1,.5-.5c.4-.1.6.1.6.5Z"></path><path class="cls-5" d="M410.6,323.7a.55.55,0,0,1-1.1.1v-.1a.47.47,0,0,1,.5-.5h0c.4-.1.6.1.6.5Z"></path><path class="cls-5" d="M414.1,323.7a.58.58,0,0,1-.6.6c-.3,0-.5-.2-.5-.6a.54.54,0,0,1,.5-.5c.4-.1.6.1.6.5Z"></path><path class="cls-5" d="M417.6,323.7a.55.55,0,0,1-1.1.1v-.1a.47.47,0,0,1,.5-.5h0a.47.47,0,0,1,.6.5Z"></path><path class="cls-5" d="M421.1,323.7a.47.47,0,0,1-.5.5.54.54,0,0,1-.5-.5.47.47,0,0,1,.5-.5h0c.3-.1.5.1.5.5Z"></path><path class="cls-5" d="M424.6,323.7a.5.5,0,0,1-1,0,.54.54,0,0,1,.5-.5c.3-.1.5.1.5.5Z"></path><path class="cls-5" d="M428.1,323.7a.47.47,0,0,1-.5.5.54.54,0,0,1-.5-.5.47.47,0,0,1,.5-.5h0c.3-.1.5.1.5.5Z"></path><path class="cls-5" d="M403.6,320.4a.55.55,0,1,1-.6-.5h0c.4-.1.7.2.6.5Z"></path><path class="cls-5" d="M407.1,320.4a.55.55,0,1,1-.6-.5h0A.47.47,0,0,1,407.1,320.4Z"></path><path class="cls-5" d="M410.6,320.4a.55.55,0,1,1-.6-.5h0c.4-.1.7.2.6.5Z"></path><path class="cls-5" d="M414.1,320.4a.55.55,0,1,1-.6-.5h0A.47.47,0,0,1,414.1,320.4Z"></path><path class="cls-5" d="M417.6,320.4a.55.55,0,1,1-.6-.5h.1a.4.4,0,0,1,.5.5Z"></path><path class="cls-5" d="M421.1,320.4a.47.47,0,0,1-.5.5.58.58,0,0,1-.6-.6c0-.3.2-.5.6-.5h0a.56.56,0,0,1,.5.6Z"></path><path class="cls-5" d="M424.6,320.4a.47.47,0,0,1-.5.5.58.58,0,0,1-.6-.6c0-.3.2-.5.6-.5h0a.56.56,0,0,1,.5.6Z"></path><path class="cls-5" d="M428.1,320.4a.47.47,0,0,1-.5.5.58.58,0,0,1-.6-.6c0-.3.2-.5.6-.5h0a.56.56,0,0,1,.5.6Z"></path><path class="cls-5" d="M403.6,317.1c0,.3-.2.5-.6.5s-.5-.2-.5-.6.2-.5.6-.5h0A.5.5,0,0,1,403.6,317.1Z"></path><path class="cls-5" d="M407.1,317.1a.55.55,0,1,1-.6-.5h0A.47.47,0,0,1,407.1,317.1Z"></path><path class="cls-5" d="M410.6,317.1c0,.3-.2.5-.6.5s-.5-.2-.5-.6.2-.5.6-.5h0A.56.56,0,0,1,410.6,317.1Z"></path><path class="cls-5" d="M414.1,317.1a.55.55,0,1,1-.6-.5h0A.47.47,0,0,1,414.1,317.1Z"></path><path class="cls-5" d="M417.6,317.1c0,.3-.2.5-.6.5s-.5-.2-.5-.6.2-.5.6-.5h0a.56.56,0,0,1,.5.6Z"></path><path class="cls-5" d="M421.1,317.1a.47.47,0,0,1-.5.5.56.56,0,0,1-.6-.5.58.58,0,0,1,.6-.6h0a.56.56,0,0,1,.5.6Z"></path><path class="cls-5" d="M424.6,317.1a.47.47,0,0,1-.5.5.56.56,0,0,1-.6-.5.58.58,0,0,1,.6-.6h0a.56.56,0,0,1,.5.6Z"></path><path class="cls-5" d="M428.1,317.1a.47.47,0,0,1-.5.5.56.56,0,0,1-.6-.5.58.58,0,0,1,.6-.6h0a.56.56,0,0,1,.5.6Z"></path><path class="cls-5" d="M403.6,313.8a.56.56,0,0,1-.6.5c-.2,0-.4-.2-.5-.5a.55.55,0,1,1,1.1-.1C403.7,313.7,403.7,313.8,403.6,313.8Z"></path><path class="cls-5" d="M407.1,313.8c0,.3-.2.5-.6.5a.47.47,0,0,1-.5-.5.56.56,0,0,1,.5-.6q.6.15.6.6Z"></path><path class="cls-5" d="M410.6,313.8a.56.56,0,0,1-.6.5c-.2,0-.4-.2-.5-.5a.55.55,0,1,1,1.1-.1Z"></path><path class="cls-5" d="M414.1,313.8c0,.3-.2.5-.6.5a.47.47,0,0,1-.5-.5.56.56,0,0,1,.5-.6q.6.15.6.6Z"></path><path class="cls-5" d="M417.6,313.8a.56.56,0,0,1-.6.5c-.2,0-.4-.2-.5-.5a.47.47,0,0,1,.5-.5h0c.4,0,.6.2.6.5Z"></path><path class="cls-5" d="M421.1,313.8a.54.54,0,0,1-.5.5.47.47,0,0,1-.5-.5h0a.5.5,0,0,1,1,0Z"></path><path class="cls-5" d="M424.6,313.8a.47.47,0,0,1-.5.5h0a.5.5,0,1,1,.5-.5Z"></path><path class="cls-5" d="M428.1,313.8a.54.54,0,0,1-.5.5.47.47,0,0,1-.5-.5h0a.5.5,0,0,1,1,0Z"></path><path class="cls-5" d="M403.6,310.5a.55.55,0,1,1-.6-.5h0a.47.47,0,0,1,.6.5Z"></path><path class="cls-5" d="M407.1,310.5a.55.55,0,1,1-.6-.5h0A.47.47,0,0,1,407.1,310.5Z"></path><path class="cls-5" d="M410.6,310.5a.55.55,0,1,1-.6-.5h0a.47.47,0,0,1,.6.5Z"></path><path class="cls-5" d="M414.1,310.5a.55.55,0,1,1-.6-.5h0A.47.47,0,0,1,414.1,310.5Z"></path><path class="cls-5" d="M417.6,310.5a.55.55,0,1,1-.6-.5h0a.47.47,0,0,1,.6.5Z"></path><path class="cls-5" d="M421.1,310.5a.47.47,0,0,1-.5.5.56.56,0,0,1-.5-.6c0-.2.2-.4.5-.5A.56.56,0,0,1,421.1,310.5Z"></path><path class="cls-5" d="M424.6,310.5a.47.47,0,0,1-.5.5h0a.55.55,0,0,1-.1-1.1h.1a.56.56,0,0,1,.5.6Z"></path><path class="cls-5" d="M428.1,310.5a.47.47,0,0,1-.5.5.56.56,0,0,1-.5-.6c0-.2.2-.4.5-.5A.56.56,0,0,1,428.1,310.5Z"></path><path class="cls-6" d="M480,32.4V54a1.84,1.84,0,0,1-1.7,1.8H441.5a1.79,1.79,0,0,1-1.8-1.8h0V32.4a1.79,1.79,0,0,1,1.8-1.8h36.8a1.93,1.93,0,0,1,1.7,1.8Z"></path><rect class="cls-7" x="439.7" y="35.1" width="40.3" height="4.8"></rect><path class="cls-7" d="M469.2,49.3h6.1A1.69,1.69,0,0,1,477,51h0a1.69,1.69,0,0,1-1.7,1.7h-6.1a1.69,1.69,0,0,1-1.7-1.7h0a1.75,1.75,0,0,1,1.7-1.7Z"></path><path class="cls-7" d="M442.2,43.8h2.7a.22.22,0,0,1,.2.2v1.4a.22.22,0,0,1-.2.2h-2.7a.22.22,0,0,1-.2-.2V44A.22.22,0,0,1,442.2,43.8Z"></path><path class="cls-7" d="M447.7,43.8h2.7a.22.22,0,0,1,.2.2v1.4a.22.22,0,0,1-.2.2h-2.7a.22.22,0,0,1-.2-.2V44C447.5,43.9,447.5,43.8,447.7,43.8Z"></path><path class="cls-7" d="M453.1,43.8h2.7a.22.22,0,0,1,.2.2v1.4a.22.22,0,0,1-.2.2h-2.7a.22.22,0,0,1-.2-.2V44A.22.22,0,0,1,453.1,43.8Z"></path><path class="cls-7" d="M458.5,43.8h2.7a.22.22,0,0,1,.2.2v1.4a.22.22,0,0,1-.2.2h-2.7a.22.22,0,0,1-.2-.2V44A.22.22,0,0,1,458.5,43.8Z"></path><path class="cls-7" d="M463.9,43.8h2.7a.22.22,0,0,1,.2.2v1.4a.22.22,0,0,1-.2.2h-2.7a.22.22,0,0,1-.2-.2V44A.22.22,0,0,1,463.9,43.8Z"></path><path class="cls-7" d="M469.3,43.8H472a.22.22,0,0,1,.2.2v1.4a.22.22,0,0,1-.2.2h-2.7a.22.22,0,0,1-.2-.2V44A.22.22,0,0,1,469.3,43.8Z"></path><path class="cls-7" d="M474.8,43.8h2.7a.22.22,0,0,1,.2.2v1.4a.22.22,0,0,1-.2.2h-2.7a.22.22,0,0,1-.2-.2V44A.22.22,0,0,1,474.8,43.8Z"></path><rect class="cls-7" x="439.7" y="32.6" width="40.3" height="0.9"></rect><path class="cls-7" d="M444.7,47.6h0a2.69,2.69,0,0,1,2.7,2.7h0a2.69,2.69,0,0,1-2.7,2.7h0a2.69,2.69,0,0,1-2.7-2.7h0A2.69,2.69,0,0,1,444.7,47.6Z"></path><path class="cls-7" d="M449.5,50.2h16a.79.79,0,0,1,.8.8h0a.68.68,0,0,1-.7.7h-16a.85.85,0,0,1-.8-.7h0A.71.71,0,0,1,449.5,50.2Z"></path><path class="cls-15" d="M465.1,30.7,440.3,55.4a1.61,1.61,0,0,1-.6-1.3V46.5l15.8-15.8Z"></path><polygon class="cls-15" points="478.1 30.7 453 55.8 448.3 55.8 473.5 30.7 478.1 30.7"></polygon><path class="cls-5" d="M92.4,257.6V283a2.11,2.11,0,0,1-2.1,2.1H47.1A2.11,2.11,0,0,1,45,283V257.5a2.11,2.11,0,0,1,2.1-2.1H90.3A2.2,2.2,0,0,1,92.4,257.6Z"></path><rect x="45" y="260.7" width="47.3" height="5.6"></rect><path class="cls-16" d="M79.8,277.4H87a2,2,0,0,1,2,2h0a2,2,0,0,1-2,2H79.8a1.92,1.92,0,0,1-1.9-2h0A1.86,1.86,0,0,1,79.8,277.4Z"></path><path class="cls-16" d="M48,270.9h3.1a.22.22,0,0,1,.2.2v1.6a.22.22,0,0,1-.2.2H48a.22.22,0,0,1-.2-.2v-1.6S47.9,270.9,48,270.9Z"></path><path class="cls-16" d="M54.4,270.9h3.1a.22.22,0,0,1,.2.2v1.6a.22.22,0,0,1-.2.2H54.4a.22.22,0,0,1-.2-.2v-1.6S54.3,270.9,54.4,270.9Z"></path><path class="cls-16" d="M60.8,270.9h3.1a.22.22,0,0,1,.2.2v1.6a.22.22,0,0,1-.2.2H60.8a.22.22,0,0,1-.2-.2v-1.6C60.5,271.1,60.7,270.9,60.8,270.9Z"></path><path class="cls-16" d="M67.2,270.9h3.1a.22.22,0,0,1,.2.2v1.6a.22.22,0,0,1-.2.2H67.2a.22.22,0,0,1-.2-.2v-1.6C66.9,271.1,67,270.9,67.2,270.9Z"></path><path class="cls-16" d="M73.5,270.9h3.1a.22.22,0,0,1,.2.2v1.6a.22.22,0,0,1-.2.2H73.5a.22.22,0,0,1-.2-.2v-1.6S73.4,270.9,73.5,270.9Z"></path><path class="cls-16" d="M79.9,270.9H83a.22.22,0,0,1,.2.2v1.6a.22.22,0,0,1-.2.2H79.9a.22.22,0,0,1-.2-.2v-1.6S79.8,270.9,79.9,270.9Z"></path><path class="cls-16" d="M86.3,270.9h3.1a.22.22,0,0,1,.2.2v1.6a.22.22,0,0,1-.2.2H86.3a.22.22,0,0,1-.2-.2v-1.6C86,271.1,86.1,270.9,86.3,270.9Z"></path><rect class="cls-16" x="45" y="257.8" width="47.3" height="1.1"></rect><path class="cls-16" d="M51,275.5h0a3.08,3.08,0,0,1,3.1,3.2h0a3.2,3.2,0,0,1-3.1,3.2h0a3.16,3.16,0,0,1-3.2-3.2h0a3.16,3.16,0,0,1,3.2-3.2Z"></path><path class="cls-16" d="M56.6,278.4H75.5a.9.9,0,0,1,.9.9h0a.9.9,0,0,1-.9.9H56.6a.9.9,0,0,1-.9-.9h0c0-.5.4-.8.9-.9Z"></path><path class="cls-15" d="M74.8,255.5,45.7,284.6A2,2,0,0,1,45,283v-8.9l18.6-18.6Z"></path><polygon class="cls-15" points="90.2 255.5 60.6 285.1 55.2 285.1 84.7 255.5 90.2 255.5"></polygon><path class="cls-17" d="M482.7,252.7a6.76,6.76,0,1,1-7.1-11.5,6.79,6.79,0,0,1,9.3,2.1,7,7,0,0,1-2.2,9.4Z"></path><path class="cls-18" d="M307,84.6a6.69,6.69,0,1,1,2.2-9.2,6.79,6.79,0,0,1-2.2,9.2Z"></path><path class="cls-18" d="M206.5,295.6a11.2,11.2,0,1,1-11.2-11.2h0A11.18,11.18,0,0,1,206.5,295.6Z"></path><path class="cls-19" d="M217.7,302a11.2,11.2,0,1,1-11.2-11.2h0A11.25,11.25,0,0,1,217.7,302Z"></path><rect class="cls-3" x="88.2" y="57.9" width="25.6" height="25.6"></rect><rect class="cls-20" x="100.8" y="70.7" width="25.6" height="25.6"></rect><line class="cls-17" x1="381.4" y1="295.4" x2="365.1" y2="280.1"></line><line class="cls-17" x1="365.6" y1="296" x2="380.9" y2="279.6"></line><path class="cls-17" d="M461.4,117.8a17,17,0,1,1,34,0h0"></path><path class="cls-21" d="M476.5,126.4a17,17,0,1,1,34,0h0"></path><circle class="cls-6" cx="510.25" cy="342.64" r="2.6" transform="translate(23.83 718.34) rotate(-71.56)"></circle><path class="cls-6" d="M529.4,342.6a2.6,2.6,0,1,1-2.6-2.6h0a2.58,2.58,0,0,1,2.6,2.6Z"></path><path class="cls-6" d="M546,342.6a2.6,2.6,0,1,1-2.6-2.6h0a2.58,2.58,0,0,1,2.6,2.6Z"></path><path class="cls-6" d="M512.8,327a2.6,2.6,0,1,1-2.6-2.6,2.65,2.65,0,0,1,2.6,2.6Z"></path><path class="cls-6" d="M529.4,327a2.6,2.6,0,1,1-2.6-2.6h0a2.58,2.58,0,0,1,2.6,2.6Z"></path><path class="cls-6" d="M546,327a2.6,2.6,0,1,1-2.6-2.6h0A2.58,2.58,0,0,1,546,327Z"></path><path class="cls-6" d="M529.4,310.3a2.6,2.6,0,1,1-2.6-2.6h0A2.58,2.58,0,0,1,529.4,310.3Z"></path><path class="cls-6" d="M546,310.3a2.6,2.6,0,1,1-2.6-2.6h0A2.58,2.58,0,0,1,546,310.3Z"></path><path class="cls-6" d="M498.1,342.6a2.6,2.6,0,1,1-2.6-2.6h0a2.58,2.58,0,0,1,2.6,2.6Z"></path><path class="cls-6" d="M546,294.6a2.6,2.6,0,1,1-2.6-2.6h0a2.58,2.58,0,0,1,2.6,2.6Z"></path><circle class="cls-22" cx="69.2" cy="28.3" r="2.6"></circle><path class="cls-22" d="M49.9,28.3a2.6,2.6,0,1,1,2.6,2.6h0a2.72,2.72,0,0,1-2.6-2.6Z"></path><path class="cls-22" d="M33.3,28.3a2.6,2.6,0,1,1,2.6,2.6h0A2.65,2.65,0,0,1,33.3,28.3Z"></path><path class="cls-22" d="M66.6,44.2a2.6,2.6,0,1,1,2.6,2.6h0A2.58,2.58,0,0,1,66.6,44.2Z"></path><path class="cls-22" d="M49.9,44.2a2.6,2.6,0,1,1,2.6,2.6h0a2.65,2.65,0,0,1-2.6-2.6Z"></path><path class="cls-22" d="M33.3,44.2a2.6,2.6,0,1,1,2.6,2.6h0A2.58,2.58,0,0,1,33.3,44.2Z"></path><path class="cls-22" d="M49.9,59.9a2.6,2.6,0,1,1,2.6,2.6h0A2.72,2.72,0,0,1,49.9,59.9Z"></path><path class="cls-22" d="M33.3,59.9a2.6,2.6,0,1,1,2.6,2.6h0A2.72,2.72,0,0,1,33.3,59.9Z"></path><path class="cls-22" d="M81.3,28.3a2.6,2.6,0,1,1,2.6,2.6h0a2.65,2.65,0,0,1-2.6-2.6Z"></path><path class="cls-22" d="M33.3,75.6a2.6,2.6,0,1,1,2.6,2.6h0A2.65,2.65,0,0,1,33.3,75.6Z"></path><path class="cls-8" d="M78.1,164.8a16.91,16.91,0,0,0-4.3,1.5l-4.5-5-5.5,4.9,4.3,4.8a14.91,14.91,0,0,0-2.3,4.3l-7.5-.4-.4,7.4,6.9.4a17.94,17.94,0,0,0,1.7,6l-5,4.5,5,5.5,4.8-4.3a16.92,16.92,0,0,0,5.2,2.6l-.4,6.2,7.4.4.3-6a17,17,0,0,0,6.2-2.2l4.3,4.8,5.5-4.9-4.5-5a19.17,19.17,0,0,0,1.9-4.1l7.1.4.4-7.4-6.9-.4a15.55,15.55,0,0,0-2.3-6.2l4.8-4.3-5-5.5-5,4.5a15.15,15.15,0,0,0-4.9-2.1l.4-6.9-7.3-.4Zm8.3,11.7a6.8,6.8,0,1,1-9.6-.5h0a6.89,6.89,0,0,1,9.6.5Z"></path><path class="cls-13" d="M70.2,132.8a9,9,0,0,0-2.3.8l-2.5-2.7-3,2.7,2.4,2.6a10.46,10.46,0,0,0-1.3,2.3l-4.1-.2-.2,4,3.8.2a7.48,7.48,0,0,0,1,3.2l-2.7,2.5,2.7,3,2.6-2.4a9.2,9.2,0,0,0,2.8,1.4l-.2,3.4,4,.3.2-3.3a9.85,9.85,0,0,0,3.4-1.2l2.4,2.6,3-2.7-2.5-2.8a9.06,9.06,0,0,0,1.1-2.2l3.9.2.2-4-3.8-.2a9.85,9.85,0,0,0-1.2-3.4l2.6-2.4-2.7-3L77.1,134a11.07,11.07,0,0,0-2.7-1.2l.2-3.8-4-.2Zm4.5,6.5a3.65,3.65,0,0,1-.2,5.2,3.74,3.74,0,0,1-5.2-.2,3.65,3.65,0,0,1,.2-5.2h0a3.49,3.49,0,0,1,5.2.2Z"></path><g class="cls-23"><polygon class="cls-6" points="578.5 63.1 515 58.3 487.6 0 573.3 0 578.5 63.1"></polygon><polygon class="cls-6" points="0 308 63.4 312.8 90.9 371.1 5.1 371.1 0 308"></polygon></g><circle class="cls-5" cx="523.9" cy="215" r="13.2"></circle><ellipse class="cls-6" cx="524.49" cy="215.7" rx="13.3" ry="13.2" transform="translate(-12.23 32.54) rotate(-3.51)"></ellipse><circle class="cls-5" cx="524.6" cy="215.6" r="11.9"></circle><path class="cls-6" d="M519.7,216.7a6.89,6.89,0,0,0,2.4,2.4c1.2.7,2,.6,2.4-.2s0-1.5-1.1-2.8c-1.5-1.8-2.1-3.6-1.4-5.3,1-2,3.2-2.6,5.9-1a9.15,9.15,0,0,1,2.5,2.3l-1.6,1.8a6.36,6.36,0,0,0-2-2c-1.1-.7-1.9-.5-2.2.1s.1,1.5,1.3,2.9c1.6,2,2,3.6,1.2,5.2-1,2-3.2,2.8-6.2.9a10,10,0,0,1-2.8-2.6Z"></path><rect class="cls-6" x="516.12" y="215.23" width="16.8" height="0.9" transform="translate(66.79 550.54) rotate(-58.54)"></rect><path class="cls-6" d="M530.6,206.5c-.1.2-.3.2-.5.1h0c-.2-.1-.2-.4-.1-.6a.76.76,0,0,1,.5-.2h.1c.1.2.2.5,0,.7Z"></path><path class="cls-6" d="M519.2,225.2a.37.37,0,0,1-.5.2h0a.37.37,0,0,1-.2-.5h0a.37.37,0,0,1,.5-.2h.1c.2.1.2.3.1.5Z"></path><path class="cls-6" d="M528,205.2a.55.55,0,0,1-.5.3h0a.41.41,0,1,1,.2-.8c.3.1.4.3.3.5Z"></path><path class="cls-6" d="M521.8,226.3a.55.55,0,0,1-.5.3h0a.55.55,0,0,1-.3-.5h0a.35.35,0,0,1,.5-.3c.3.1.4.2.3.5Z"></path><path class="cls-6" d="M525.2,204.7a.43.43,0,0,1-.4.4h0a.43.43,0,0,1-.4-.4h0a.41.41,0,0,1,.8-.2v.2Z"></path><path class="cls-6" d="M524.7,226.7a.43.43,0,0,1-.4.4h0a.43.43,0,0,1-.4-.4h0a.43.43,0,0,1,.4-.4h0A.43.43,0,0,1,524.7,226.7Z"></path><path class="cls-6" d="M522.4,204.8a.55.55,0,0,1-.3.5c-.2.1-.4-.1-.5-.3h0a.55.55,0,0,1,.3-.5.38.38,0,0,1,.5.3Z"></path><path class="cls-6" d="M527.5,226.3c.1.2-.1.4-.3.5h0c-.2.1-.4-.1-.5-.3h0a.55.55,0,0,1,.3-.5.34.34,0,0,1,.5.3Z"></path><path class="cls-6" d="M519.6,205.8a.38.38,0,1,1-.7.3h0a.44.44,0,0,1,.1-.5h0c.3,0,.5,0,.6.2Z"></path><path class="cls-6" d="M530.1,225.1a.44.44,0,0,1-.1.5h0a.38.38,0,1,1-.3-.7h0A.4.4,0,0,1,530.1,225.1Z"></path><path class="cls-6" d="M517.2,207.4a.37.37,0,0,1,0,.6c-.1.2-.4.2-.6.1s-.2-.4-.1-.6a.1.1,0,0,1,.1-.1h0c.2-.2.5-.2.6,0Z"></path><path class="cls-6" d="M532.4,223.4a.28.28,0,0,1,0,.5h0c-.1.2-.4.2-.6,0h0a.37.37,0,0,1,0-.6.47.47,0,0,1,.6.1Z"></path><path class="cls-6" d="M515.4,209.6a.35.35,0,0,1,.1.5.37.37,0,0,1-.5.2h0a.37.37,0,0,1-.2-.5h0c.1-.3.3-.3.6-.2Z"></path><path class="cls-6" d="M534.1,221.1c.2.1.2.3.1.5h0c-.1.2-.3.2-.5.1h0a.37.37,0,0,1-.2-.5c.1-.2.3-.3.6-.1Z"></path><path class="cls-6" d="M514.1,212.2a.41.41,0,0,1-.2.8h0c-.2,0-.3-.3-.3-.5h0c.1-.3.3-.4.5-.3Z"></path><path class="cls-6" d="M535.2,218.4a.55.55,0,0,1,.3.5h0a.55.55,0,0,1-.5.3h0a.55.55,0,0,1-.3-.5h0C534.8,218.4,535,218.3,535.2,218.4Z"></path><path class="cls-6" d="M513.5,215a.43.43,0,0,1,.4.4h0a.43.43,0,0,1-.4.4h0a.43.43,0,0,1-.4-.4.37.37,0,0,1,.4-.4Z"></path><path class="cls-6" d="M535.6,215.5a.43.43,0,0,1,.4.4h0a.4.4,0,1,1-.8,0h0A.37.37,0,0,1,535.6,215.5Z"></path><path class="cls-6" d="M513.8,217.8c.2-.1.4.1.5.3s-.1.4-.3.5h0c-.2.1-.4-.1-.5-.3h0C513.4,218.1,513.5,217.9,513.8,217.8Z"></path><path class="cls-6" d="M535.1,212.7a.55.55,0,0,1,.5.3c.1.2-.1.4-.3.5h0c-.2.1-.4-.1-.5-.3h0C534.8,213,534.9,212.7,535.1,212.7Z"></path><path class="cls-6" d="M514.7,220.6a.38.38,0,1,1-.2.5h0a.37.37,0,0,1,.2-.5Z"></path><path class="cls-6" d="M534,210.1a.44.44,0,0,1,.5.1h0a.43.43,0,1,1-.7.5.1.1,0,0,0-.1-.1C533.8,210.4,533.8,210.2,534,210.1Z"></path><path class="cls-6" d="M516.3,222.9a.42.42,0,1,1,0,.6c-.2-.1-.2-.4,0-.6Z"></path><path class="cls-6" d="M532.2,207.8a.28.28,0,0,1,.5,0h0a.37.37,0,0,1,0,.6.64.64,0,0,1-.6,0A1.27,1.27,0,0,1,532.2,207.8Z"></path><circle class="cls-6" cx="176.8" cy="40.5" r="13.2"></circle><circle class="cls-5" cx="177.5" cy="41.2" r="13.2"></circle><circle class="cls-6" cx="177.5" cy="41.2" r="11.9"></circle><path class="cls-5" d="M172.6,42.3a6.89,6.89,0,0,0,2.4,2.4c1.1.7,2,.6,2.4-.2s0-1.5-1.1-2.8c-1.5-1.8-2.1-3.6-1.4-5.3.9-2,3.2-2.6,5.9-1a7.91,7.91,0,0,1,2.5,2.3l-1.6,1.8a6.36,6.36,0,0,0-2-2c-1.1-.7-1.9-.5-2.1.1s.1,1.5,1.2,2.9c1.6,2,2,3.6,1.2,5.3-.9,2-3.2,2.8-6.2.9A10.26,10.26,0,0,1,171,44Z"></path><rect class="cls-5" x="169.12" y="40.78" width="16.8" height="0.9" transform="translate(49.7 171.13) rotate(-58.54)"></rect><path class="cls-5" d="M183.6,32c-.1.2-.3.2-.5.1h0a.36.36,0,0,1,.4-.6h0c.2.1.2.3.1.5Z"></path><path class="cls-5" d="M172.1,50.8c-.1.2-.3.2-.5.1h0c-.2-.1-.3-.4-.2-.5s.4-.3.5-.2h0C172.2,50.4,172.2,50.6,172.1,50.8Z"></path><path class="cls-5" d="M181,30.7a.55.55,0,0,1-.5.3h0a.55.55,0,0,1-.3-.5h0c0-.2.2-.4.4-.3s.5.2.4.5Z"></path><path class="cls-5" d="M174.8,51.9a.41.41,0,0,1-.8-.2h0a.55.55,0,0,1,.5-.3h0a.55.55,0,0,1,.3.5Z"></path><path class="cls-5" d="M178.1,30.2a.43.43,0,0,1-.4.4h0a.43.43,0,0,1-.4-.4h0a.43.43,0,0,1,.4-.4h0C178,29.9,178.1,30,178.1,30.2Z"></path><path class="cls-5" d="M177.6,52.2a.43.43,0,0,1-.4.4h0a.35.35,0,0,1-.3-.5.32.32,0,0,1,.3-.3.43.43,0,0,1,.4.4Z"></path><path class="cls-5" d="M175.3,30.4c.1.2-.1.4-.2.5h0c-.2.1-.4-.1-.5-.3s.1-.4.3-.5h0C175.1,30.1,175.2,30.2,175.3,30.4Z"></path><path class="cls-5" d="M180.5,51.8a.55.55,0,0,1-.3.5.37.37,0,0,1-.4-.4.52.52,0,0,1,.2-.4.55.55,0,0,1,.5.3Z"></path><path class="cls-5" d="M172.6,31.4c.1.2.1.4-.1.5h0a.43.43,0,0,1-.5-.7.1.1,0,0,0,.1-.1.68.68,0,0,1,.5.3Z"></path><path class="cls-5" d="M183.1,50.7c.1.2,0,.4-.2.6a.37.37,0,0,1-.5-.2h0a.44.44,0,0,1,.1-.5C182.8,50.5,183,50.5,183.1,50.7Z"></path><path class="cls-5" d="M170.2,33c.2.1.2.4,0,.6h0a.42.42,0,1,1-.6-.6h0a.37.37,0,0,1,.6,0Z"></path><path class="cls-5" d="M185.4,49a.64.64,0,0,1,0,.6.45.45,0,0,1-.5,0,.64.64,0,0,1,0-.6c0-.2.3-.2.5,0Z"></path><path class="cls-5" d="M168.3,35.1c.2.1.2.3.1.5h0c-.1.2-.3.2-.5.1h0a.35.35,0,0,1-.1-.5A.44.44,0,0,1,168.3,35.1Z"></path><path class="cls-5" d="M187.1,46.6a.35.35,0,0,1,.1.5h0c-.1.2-.3.2-.5.1h0a.35.35,0,0,1-.1-.5c.1-.1.4-.2.5-.1Z"></path><path class="cls-5" d="M167,37.7a.55.55,0,0,1,.3.5h0a.55.55,0,0,1-.5.3h0a.55.55,0,0,1-.3-.5h0a.55.55,0,0,1,.5-.3Z"></path><path class="cls-5" d="M188.1,44a.41.41,0,0,1-.2.8h0a.55.55,0,0,1-.3-.5h0c.1-.3.3-.4.5-.3Z"></path><path class="cls-5" d="M166.5,40.6a.43.43,0,0,1,.4.4h0a.4.4,0,0,1-.8,0h0a.37.37,0,0,1,.4-.4Z"></path><path class="cls-5" d="M188.5,41.1a.43.43,0,0,1,.4.4h0a.43.43,0,0,1-.4.4h0a.43.43,0,0,1-.4-.4h0A.43.43,0,0,1,188.5,41.1Z"></path><path class="cls-5" d="M166.7,43.4c.2-.1.4.1.5.3s-.1.4-.3.5h0c-.2.1-.4-.1-.5-.3s.1-.4.3-.5Z"></path><path class="cls-5" d="M188.1,38.2a.55.55,0,0,1,.5.3c.1.2-.1.4-.3.5h0c-.2.1-.4-.1-.5-.3h0A.55.55,0,0,1,188.1,38.2Z"></path><path class="cls-5" d="M167.6,46.1a.37.37,0,0,1,.5.2h0a.44.44,0,0,1-.1.5h0a.37.37,0,0,1-.5-.2h0c-.1-.1-.1-.3.1-.5Z"></path><path class="cls-5" d="M187,35.6a.44.44,0,0,1,.5.1h0a.38.38,0,1,1-.7.3.4.4,0,0,1,.2-.4Z"></path><path class="cls-5" d="M169.2,48.5a.42.42,0,1,1,0,.6A.64.64,0,0,1,169.2,48.5Z"></path><path class="cls-5" d="M185.2,33.4a.37.37,0,0,1,.6,0h0a.42.42,0,1,1-.6.6c-.2-.2-.2-.5,0-.6Z"></path><circle class="cls-6" cx="129.8" cy="309" r="13.2"></circle><circle class="cls-5" cx="130.5" cy="309.7" r="13.2"></circle><circle class="cls-6" cx="130.49" cy="309.71" r="11.9"></circle><path class="cls-5" d="M125.7,310.8a6.89,6.89,0,0,0,2.4,2.4c1.1.7,2,.6,2.3-.2s0-1.5-1.1-2.8c-1.5-1.8-2.1-3.6-1.4-5.3,1-2,3.2-2.6,5.9-1a7.18,7.18,0,0,1,2.5,2.4l-1.6,1.8a6.36,6.36,0,0,0-2-2c-1.1-.6-1.8-.5-2.1.1s.1,1.5,1.2,2.9c1.6,2,2,3.6,1.2,5.2-.9,2-3.2,2.8-6.2.9a10,10,0,0,1-2.8-2.6Z"></path><rect class="cls-5" x="120.96" y="309.09" width="16.7" height="0.8" transform="translate(-202.17 258.27) rotate(-58.54)"></rect><path class="cls-5" d="M136.6,300.5c-.1.2-.4.3-.5.1s-.3-.4-.1-.5.4-.3.5-.1h0A.44.44,0,0,1,136.6,300.5Z"></path><path class="cls-5" d="M125.1,319.3a.35.35,0,0,1-.5.1c-.2-.1-.3-.4-.1-.5s.4-.3.5-.1.2.3.1.5Z"></path><path class="cls-5" d="M134,299.3a.41.41,0,0,1-.8-.2.37.37,0,0,1,.5-.2c.2-.1.3.1.3.4Z"></path><path class="cls-5" d="M127.8,320.4a.37.37,0,0,1-.5.2c-.2-.1-.3-.2-.2-.4h0c0-.2.2-.4.4-.3s.4.2.3.4Z"></path><path class="cls-5" d="M131.2,298.7a.4.4,0,0,1-.8,0h0a.43.43,0,0,1,.4-.4h0a.43.43,0,0,1,.4.4Z"></path><path class="cls-5" d="M130.6,320.7a.43.43,0,0,1-.4.4h0a.43.43,0,0,1-.4-.4h0a.43.43,0,0,1,.4-.4.37.37,0,0,1,.4.4Z"></path><path class="cls-5" d="M128.3,298.9c.1.2-.1.4-.3.5s-.4-.1-.5-.3a.55.55,0,0,1,.3-.5C128,298.6,128.3,298.7,128.3,298.9Z"></path><path class="cls-5" d="M133.5,320.3a.55.55,0,0,1-.3.5h0c-.2.1-.4-.1-.5-.3s.1-.4.3-.5a.55.55,0,0,1,.5.3Z"></path><path class="cls-5" d="M125.6,299.8a.38.38,0,1,1-.5-.2C125.2,299.6,125.5,299.6,125.6,299.8Z"></path><path class="cls-5" d="M136.1,319.2a.44.44,0,0,1-.1.5h0a.38.38,0,0,1-.3-.7C135.8,318.9,136,319,136.1,319.2Z"></path><path class="cls-5" d="M123.2,301.4c.2.1.2.4.1.6s-.4.2-.6.1l-.1-.1h0c-.2-.1-.2-.4,0-.6h0a.64.64,0,0,1,.6,0Z"></path><path class="cls-5" d="M138.4,317.4a.42.42,0,1,1-.6.6.45.45,0,0,1,0-.5A.47.47,0,0,1,138.4,317.4Z"></path><path class="cls-5" d="M121.3,303.6c.2.1.2.4.1.6s-.3.2-.5.1-.3-.4-.2-.5.4-.3.6-.2Z"></path><path class="cls-5" d="M140.1,315.1c.2.1.2.3.1.5h0c-.1.2-.3.2-.5.1h0a.35.35,0,0,1-.1-.5.44.44,0,0,1,.5-.1Z"></path><path class="cls-5" d="M120,306.2a.37.37,0,0,1,.2.5c-.1.2-.2.3-.4.2a.55.55,0,0,1-.3-.5c.1-.1.3-.3.5-.2Z"></path><path class="cls-5" d="M141.2,312.4a.55.55,0,0,1,.3.5h0a.41.41,0,0,1-.8-.2c0-.2.2-.3.5-.3Z"></path><path class="cls-5" d="M119.5,309a.4.4,0,1,1,0,.8h0a.43.43,0,0,1-.4-.4h0a.43.43,0,0,1,.4-.4Z"></path><path class="cls-5" d="M141.5,309.6a.43.43,0,0,1,.4.4h0a.43.43,0,0,1-.4.4h0a.43.43,0,0,1-.4-.4.37.37,0,0,1,.4-.4Z"></path><path class="cls-5" d="M119.7,311.9c.2-.1.4.1.5.3s-.1.4-.3.5h0c-.2.1-.4-.1-.5-.3h0A.55.55,0,0,1,119.7,311.9Z"></path><path class="cls-5" d="M141.1,306.7c.2-.1.4.1.5.3a.37.37,0,0,1-.4.4c-.2,0-.4-.1-.4-.3A.54.54,0,0,1,141.1,306.7Z"></path><path class="cls-5" d="M120.6,314.6a.38.38,0,1,1,.3.7h0a.44.44,0,0,1-.5-.1A1.07,1.07,0,0,1,120.6,314.6Z"></path><path class="cls-5" d="M140,304.1a.44.44,0,0,1,.5.1h0a.38.38,0,1,1-.7.3h0c-.1,0,0-.2.2-.4Z"></path><path class="cls-5" d="M122.2,317a.38.38,0,0,1,.6,0,.64.64,0,0,1,0,.6.37.37,0,0,1-.6,0h0a.64.64,0,0,1,0-.6Z"></path><path class="cls-5" d="M138.2,301.8a.42.42,0,1,1,0,.6A.64.64,0,0,1,138.2,301.8Z"></path><path class="cls-6" d="M266.9,308.4a2.22,2.22,0,0,0-2.2,2.2h0v.3h27.9v-.3a2.22,2.22,0,0,0-2.2-2.2H266.9Z"></path><path class="cls-6" d="M265.3,343.7a2.36,2.36,0,0,0,1.6.7h23.4a2.22,2.22,0,0,0,2.2-2.2h0v-30H264.6v30A1.93,1.93,0,0,0,265.3,343.7Zm2.1-17.1v-2.3h5.7v2.3a.76.76,0,0,1-.2.4.52.52,0,0,1-.4.2h-4.7a.76.76,0,0,1-.4-.2v-.4Zm6.1,15a.76.76,0,0,1-.2.4.52.52,0,0,1-.4.2h-4.6a.76.76,0,0,1-.4-.2.52.52,0,0,1-.2-.4V337a.76.76,0,0,1,.2-.4.52.52,0,0,1,.4-.2h4.6a.76.76,0,0,1,.4.2.52.52,0,0,1,.2.4Zm0-7.3a.47.47,0,0,1-.5.5h-4.6c-.1,0-.3-.1-.4-.1a.52.52,0,0,1-.2-.4v-4.7a.76.76,0,0,1,.2-.4.52.52,0,0,1,.4-.2H273a.76.76,0,0,1,.4.2.52.52,0,0,1,.2.4Zm1.3-7.7v-2.3h5.7v2.3a.47.47,0,0,1-.5.5h-4.6a.76.76,0,0,1-.4-.2c-.2-.1-.3-.2-.2-.3Zm.3,3c0-.1.1-.3.1-.4a.52.52,0,0,1,.4-.2h4.7a.76.76,0,0,1,.4.2.52.52,0,0,1,.2.4v4.7a.76.76,0,0,1-.2.4c-.1.1-.2.2-.4.1h-4.6a.47.47,0,0,1-.5-.5v-4.7Zm5.7,12a.76.76,0,0,1-.2.4.52.52,0,0,1-.4.2h-4.6a.76.76,0,0,1-.4-.2.52.52,0,0,1-.2-.4v-4.7a.4.4,0,0,1,.2-.4.52.52,0,0,1,.4-.2h4.6a.76.76,0,0,1,.4.2.52.52,0,0,1,.2.4Zm8.6,0a.76.76,0,0,1-.2.4.52.52,0,0,1-.4.2h-5.7a.47.47,0,0,1-.5-.5V329.3a.76.76,0,0,1,.2-.4.52.52,0,0,1,.4-.2H289a.4.4,0,0,1,.4.2.52.52,0,0,1,.2.4Zm-6.6-15.1v-2.3h5.7v2.3a.76.76,0,0,1-.2.4.52.52,0,0,1-.4.2h-4.7a.76.76,0,0,1-.4-.2c0-.1-.1-.3,0-.4Zm-16.1-13.1h23.8v9H266.6Z"></path><path class="cls-5" d="M283.1,328.6a.76.76,0,0,0-.4.2.52.52,0,0,0-.2.4v12.5a.76.76,0,0,0,.2.4.52.52,0,0,0,.4.2h5.8a.76.76,0,0,0,.4-.2.52.52,0,0,0,.2-.4V329.2a.76.76,0,0,0-.2-.4.52.52,0,0,0-.4-.2Zm4.4,7.5h-3.2v-.5h3.2Zm0-1.4h-3.2v-.5h3.2Z"></path><path class="cls-5" d="M275.6,329.1a.76.76,0,0,0-.4.2c-.1.1-.2.2-.1.4v4.7c0,.1.1.3.1.4s.2.2.4.1h4.7c.1,0,.3-.1.4-.1a.52.52,0,0,0,.2-.4v-4.7a.76.76,0,0,0-.2-.4.52.52,0,0,0-.4-.2Z"></path><path class="cls-5" d="M275.6,336.4a.76.76,0,0,0-.4.2.52.52,0,0,0-.2.4v4.6a.76.76,0,0,0,.2.4.52.52,0,0,0,.4.2h4.6a.76.76,0,0,0,.4-.2.52.52,0,0,0,.2-.4V337a.76.76,0,0,0-.2-.4.52.52,0,0,0-.4-.2Z"></path><path class="cls-5" d="M268.3,329.1a.76.76,0,0,0-.4.2.52.52,0,0,0-.2.4v4.7a.76.76,0,0,0,.2.4c.1.1.2.2.4.1h4.6c.1,0,.3-.1.4-.1a.52.52,0,0,0,.2-.4v-4.7a.76.76,0,0,0-.2-.4.52.52,0,0,0-.4-.2Z"></path><path class="cls-5" d="M274.9,326.9a.52.52,0,0,0,.4.2h4.6a.76.76,0,0,0,.4-.2c.1-.1.1-.2.1-.4v-2.3h-5.8v2.3A1.38,1.38,0,0,0,274.9,326.9Z"></path><path class="cls-5" d="M282.9,326.9a.52.52,0,0,0,.4.2h4.6a.76.76,0,0,0,.4-.2.52.52,0,0,0,.2-.4v-2.3h-5.7v2.3C282.7,326.7,282.8,326.8,282.9,326.9Z"></path><path class="cls-5" d="M267.5,326.9a.52.52,0,0,0,.4.2h4.7a.76.76,0,0,0,.4-.2.52.52,0,0,0,.2-.4v-2.3h-5.7v2.3C267.4,326.7,267.4,326.8,267.5,326.9Z"></path><path class="cls-5" d="M268.3,336.4a.76.76,0,0,0-.4.2.52.52,0,0,0-.2.4v4.6a.76.76,0,0,0,.2.4.52.52,0,0,0,.4.2h4.6a.76.76,0,0,0,.4-.2.52.52,0,0,0,.2-.4V337a.76.76,0,0,0-.2-.4.52.52,0,0,0-.4-.2Z"></path><path class="cls-24" d="M290.4,322.5v-9H266.6v9Zm-4.5-2.3h.2l.2.1.3.1h.7c.1,0,.2-.1.3-.1s.1-.1.1-.2v-.2a.37.37,0,0,0-.1-.3.22.22,0,0,0-.2-.2.37.37,0,0,0-.3-.1c-.1,0-.3-.1-.4-.1h-.5v-.7h.9a.35.35,0,0,0,.2-.1l.2-.2c0-.1.1-.2.1-.3v-.2c0-.1-.1-.1-.1-.2s-.1-.1-.2-.1h-.6l-.3.1-.2.1s-.1.1-.1,0h0v-.8h0l.1-.1.3-.1c.1,0,.2-.1.4-.1h.5a1.27,1.27,0,0,1,.6.1.76.76,0,0,1,.4.2,1.38,1.38,0,0,1,.3.4.75.75,0,0,1,.1.5v.4c0,.1-.1.2-.1.3l-.2.2a.37.37,0,0,1-.3.1h0c.1,0,.3.1.4.1s.2.1.3.2.1.2.2.3.1.2.1.4a1.27,1.27,0,0,1-.1.6,1.38,1.38,0,0,1-.3.4c-.2.1-.3.2-.5.3a2.05,2.05,0,0,1-1.1,0l-.3-.1-.3-.1-.1-.1v-.4c-.5.1-.6,0-.6-.1Zm-3.6.3v-.1l.1-.1.1-.1.8-.8c.1-.1.2-.3.4-.4a.52.52,0,0,0,.2-.4c0-.1.1-.2.1-.3v-.5c0-.1,0-.1-.1-.2s-.1-.1-.2-.1h-.6l-.3.1-.2.1h-.1v-.8a.35.35,0,0,1,.2-.1.37.37,0,0,1,.3-.1l.4-.1h.4a1.27,1.27,0,0,1,.6.1.52.52,0,0,1,.4.2,1.38,1.38,0,0,1,.3.4.75.75,0,0,1,.1.5v.4c0,.2-.1.3-.2.5a1,1,0,0,1-.4.5c-.2.2-.4.5-.6.7l-.5.5h1.8l.1.1v.6h-2.8l-.1-.1c-.2-.3-.2-.4-.2-.5Zm-3.3-3v-.1h.1l1-.6h.7v3.7h.8v.8H279v-.8h.9v-2.9l-.7.4H279v-.5Z"></path><path d="M279.1,320.3h0v.6h2.5v-.8h-.8v-3.7h-.7l-.9.6h-.1v.6h.2l.7-.4v2.9Z"></path><path d="M283.9,318.5c-.1.1-.1.2-.2.4a.78.78,0,0,1-.4.4l-.8.8-.1.1-.1.1v.5l.1.1h2.8v-.6l-.1-.1h-1.8l.5-.5a4.35,4.35,0,0,0,.6-.7c.1-.2.3-.3.4-.5s.1-.3.2-.5v-.4a.9.9,0,0,0-.1-.5c-.1-.1-.1-.3-.3-.4a.76.76,0,0,0-.4-.2,1.27,1.27,0,0,0-.6-.1h-.4l-.4.1c-.1,0-.2.1-.3.1s-.1.1-.2.1v.8h0l.1-.1.2-.1.3-.1h.6c.1,0,.1.1.2.1s.1.1.1.2v.5C284,318.2,284,318.4,283.9,318.5Z"></path><path d="M287.6,320.2a.35.35,0,0,0-.2.1h-.8l-.3-.1-.2-.1-.1-.1-.1.1v.6l.1.1.3.1.3.1a2.08,2.08,0,0,0,1.1-.1.55.55,0,0,0,.5-.3.54.54,0,0,0,.3-.4,1.27,1.27,0,0,0,.1-.6.6.6,0,0,0-.1-.4c0-.1-.1-.2-.2-.3s-.2-.2-.3-.2a.6.6,0,0,0-.4-.1h0c.1,0,.2-.1.3-.1s.2-.1.2-.2a.37.37,0,0,0,.1-.3v-.4a.9.9,0,0,0-.1-.5.71.71,0,0,0-.6-.6,1.27,1.27,0,0,0-.6-.1h-.5l-.4.1-.3.1-.1.1h0v.6h.1l.2-.1.3-.1h.5c.1,0,.1.1.2.1s.1.1.1.2v.2a.37.37,0,0,1-.1.3.22.22,0,0,1-.2.2.37.37,0,0,1-.3.1h-.9v.6h.9c.1,0,.2.1.3.1l.2.2c0,.1.1.2.1.3v.2C287.7,319.9,287.7,320.1,287.6,320.2Z"></path><rect x="284.3" y="334.2" width="3.2" height="0.5"></rect><rect x="284.3" y="335.6" width="3.2" height="0.5"></rect><rect class="cls-5" x="264.6" y="310.9" width="27.8" height="1.2"></rect><path class="cls-5" d="M230.6,75.7h22.5a.27.27,0,0,1,.3.3V92.3a.27.27,0,0,1-.3.3H230.6a.27.27,0,0,1-.3-.3V76C230.2,75.8,230.4,75.7,230.6,75.7Z"></path><g class="cls-25"><path class="cls-26" d="M231.5,76.8h-.9a.1.1,0,0,0,0,.2h.9c.1,0,.1,0,.1-.1h0a.1.1,0,0,0-.1-.1Zm1.8,0h-.9c-.1,0-.1,0-.1.1h0l.1.1h.9a.1.1,0,0,0,.1-.1h0c0-.1-.1-.2-.1-.1Zm1.8,0h-.9c-.1,0-.1,0-.1.1a.1.1,0,0,0,.1.1h.9a.1.1,0,0,0,.1-.1h0a.1.1,0,0,0-.1-.1Zm1.8,0H236c-.1,0-.1,0-.1.1V77h1c0-.1.1-.1,0-.2Zm1.8,0h-1v.1c0,.1,0,.1.1.1h.9a.1.1,0,0,0,.1-.1h0c0-.1,0-.2-.1-.1Zm1.8,0h-.9c-.1,0-.1,0-.1.1h0c0,.1,0,.1.1.1h1l.1-.1c0-.1-.1-.2-.2-.1Zm1.8,0h-.9c-.1,0-.1,0-.1.1a.1.1,0,0,0,.1.1h.9a.1.1,0,0,0,.1-.1h0c0-.1,0-.1-.1-.1Zm1.8,0h-.9a.1.1,0,0,0-.1.1V77h1c.1-.1.1-.1,0-.2.1,0,.1-.1,0,0Zm1.9,0h-.9c-.1,0-.1,0-.1.1h0a.1.1,0,0,0,.1.1h.9c.1,0,.1,0,.1-.1h0a.1.1,0,0,0-.1-.1Zm1.8,0h-.9c-.1,0-.1,0-.1.1h0c0,.1,0,.1.1.1h.9c.1,0,.1,0,.2-.1v-.1c-.1,0-.1-.1-.2,0Zm1.8,0h-.9a.1.1,0,0,0-.1.1h0c0,.1,0,.1.1.1h.9c.1,0,.1,0,.1-.1h0a.1.1,0,0,0-.1-.1Zm1.8,0h-.9c-.1,0-.1,0-.1.1a.1.1,0,0,0,.1.1h.9a.1.1,0,0,0,.1-.1h0a.1.1,0,0,0-.1-.1Zm.7.2c-.1,0-.1,0-.1.1V78a.1.1,0,1,0,.2,0v-.9c.1,0,0-.1-.1-.1Zm0,1.8c-.1,0-.1,0-.1.1h0v.9a.1.1,0,0,0,.1.1h0a.1.1,0,0,0,.1-.1V79c0-.1,0-.2-.1-.2Zm0,1.8c-.1,0-.1,0-.1.1h0v1.1h.1c.1,0,.1,0,.1-.1h0v-.9c0-.1,0-.1-.1-.2Zm0,1.8a.1.1,0,0,0-.1.1h0v.9c0,.1,0,.1.1.1h0c.1,0,.1,0,.1-.1h0v-.9l-.1-.1Zm0,1.9c-.1,0-.1,0-.1.1v.9a.1.1,0,0,0,.2,0v-1c0-.1,0-.1-.1,0Zm0,1.8c-.1,0-.1,0-.1.1h0v.9a.1.1,0,0,0,.2,0v-.9c0-.1,0-.1-.1-.1Zm0,1.8a.1.1,0,0,0-.1.1h0v.9a.1.1,0,0,0,.1.1h0a.1.1,0,0,0,.1-.1V88C252.2,87.9,252.2,87.9,252.1,87.9Zm0,1.8c-.1,0-.1,0-.1.1h0v1c0,.1,0,.1.1.1h0c.1,0,.1,0,.1-.1h0v-.9c.1-.1,0-.1-.1-.2Zm-21.9,1.7Zm1.7-.1H231c-.1,0-.1,0-.1.1s0,.1.1.1h.9a.1.1,0,0,0,0-.2Zm1.8,0h-1v.1c0,.1,0,.1.1.1h.9c.1,0,.1,0,.1-.1a.1.1,0,0,0-.1-.1Zm1.9.1-.1-.1h-.9l-.1.1h0a.1.1,0,0,0,.1.1h.9c.1,0,.1,0,.1-.1Zm1.7-.1h-.9c-.1,0-.1,0-.1.1h0a.1.1,0,0,0,.1.1h.9c.1,0,.1,0,.1-.1h0c.1,0,0-.1-.1-.1Zm1.9,0h-.9c-.1,0-.1,0-.1.1h0c0,.1,0,.1.1.1h.9a.1.1,0,0,0,.1-.1l-.1-.1Zm1.8,0h-.9c-.1,0-.1,0-.1.1h0c0,.1,0,.1.1.1h.9a.1.1,0,0,0,.1-.1.1.1,0,0,1-.1-.1Zm1.8,0h-.9c-.1,0-.1,0-.1.1h0a.1.1,0,0,0,.1.1h.9c.1,0,.1,0,.1-.1A.1.1,0,0,0,242.8,91.3Zm1.8,0h-.9c-.1,0-.1,0-.1.1h0a.1.1,0,0,0,.1.1h.9c.1,0,.1,0,.1-.1a.1.1,0,0,0-.1-.1Zm1.8,0h-.9c-.1,0-.1,0-.1.1h0a.1.1,0,0,0,.1.1h.9c.1,0,.1,0,.1-.1h0a.1.1,0,0,0-.1-.1Zm1.8,0h-.9a.1.1,0,0,0-.1.1h0c0,.1,0,.1.1.1h.9c.1,0,.1,0,.1-.1h0a.1.1,0,0,0-.1-.1Zm1.8,0h-.9c-.1,0-.1,0-.1.1h0c0,.1,0,.1.1.1h1c.1,0,.1,0,.1-.1s0-.1-.1-.1Zm1.8,0h-.9c-.1,0-.1,0-.1.1h0c0,.1,0,.1.1.1h.9a.1.1,0,0,0,0-.2Z"></path></g><path class="cls-27" d="M254.5,82.9v2.5a1.39,1.39,0,0,1-.7,1.2.6.6,0,0,1-.4.1h-6.7a1.38,1.38,0,0,1-1.3-1.1h0V82.8a1.35,1.35,0,0,1,1.4-1.3h6.7A1.33,1.33,0,0,1,254.5,82.9Z"></path><path class="cls-28" d="M253.8,86.6h0a.6.6,0,0,1-.4.1V87a1.08,1.08,0,0,1-.8.2h-6.4a1.32,1.32,0,0,1-1.3-1.3h0V83.3a1.52,1.52,0,0,1,.7-1.2,1.45,1.45,0,0,0-.2.7v2.9h0a1.38,1.38,0,0,0,1.3,1.1h6.7C253.5,86.7,253.7,86.7,253.8,86.6Z"></path><path class="cls-5" d="M250,84.2a1.9,1.9,0,1,1-1.9-1.9h0a1.9,1.9,0,0,1,1.9,1.9Z"></path><path class="cls-28" d="M249.3,85.6a1.88,1.88,0,0,1-2.6.2,2,2,0,0,1-.3-2.5l.3-.3a1.88,1.88,0,0,0,.3,2.6A2,2,0,0,0,249.3,85.6Z"></path><path class="cls-29" d="M250,84.1,248,86a1.71,1.71,0,0,1-1.6-1.1l2.5-2.5A2.45,2.45,0,0,1,250,84.1Z"></path><path class="cls-13" d="M341.8,89.5l6.2-4.8,3.1-2.4,1.7-1.3c.5-.4,1.1-1.1,1.7-1.1s1.2.6,1.7,1l1.6,1.1,3.2,2.3,6.5,4.7c.5.3.9-.4.5-.8l-7.1-5.1-3.5-2.5-1.8-1.3a1.31,1.31,0,0,0-1.9-.3l-.3.3-1.7,1.4-3.2,2.5-7,5.4c-.5.3,0,1.1.5.8Z"></path><path class="cls-13" d="M343.7,89.4a149.56,149.56,0,0,1,22.2.1c.2,0,.5-.2.5-.4a.54.54,0,0,0-.5-.5,149.56,149.56,0,0,0-22.2-.1A.45.45,0,0,0,343.7,89.4Z"></path><path class="cls-13" d="M345.6,89.3c-.3,3.3-.6,6.6-.8,9.9l-.2,2.4a12.1,12.1,0,0,0-.1,1.9c.3,1,1.6.9,2.4.8a.22.22,0,0,0,.2-.2h0l.6-15c0-.1-.1-.2-.3-.2s-.1.1-.2.2l-.3,7.5c0,1.2-.1,2.4-.1,3.6l-.1,1.9c0,.4.1,1.5-.3,1.8a2.46,2.46,0,0,1-1.2-.1,1.19,1.19,0,0,1-.4-1.1,12.25,12.25,0,0,1,.2-1.9c.1-1.2.2-2.4.2-3.7l.6-7.8c.2-.2-.2-.2-.2,0Z"></path><path class="cls-13" d="M350.4,89.3c-.2,3.4-.2,6.8-.1,10.2a19.27,19.27,0,0,0,.1,2.4,6.73,6.73,0,0,0,.1,2c.4.7,1.5.4,2.1.4a.22.22,0,0,0,.2-.2h0c.2-5.2.2-10.3-.1-15.5a.2.2,0,1,0-.4,0c.1,2.6.2,5.2.2,7.7v3.9c0,.8.3,3.4-.4,3.7h-.7c-.5-.1-.5-.3-.5-.7a13.4,13.4,0,0,1-.1-2c0-1.3-.1-2.6-.1-3.9,0-2.7.1-5.3.2-8,0-.1-.1-.2-.3-.2s-.1,0-.2.2Z"></path><path class="cls-13" d="M356.1,88.8c-.1,5,0,10,.2,15a.22.22,0,0,0,.2.2c.7,0,1.9.3,2.2-.4a4.52,4.52,0,0,0,.1-2c0-.9.1-1.7.1-2.6.2-3.4.2-6.8.2-10.3a.2.2,0,1,0-.4,0c0,2.6,0,5.2-.1,7.7,0,1.3-.1,2.6-.2,3.8,0,.6-.1,1.3-.1,1.9a3.55,3.55,0,0,1-.2,1c-.3.4-.4.4-1,.3s-.6-.4-.6-1.1l-.1-1.9c0-1.3-.1-2.6-.1-3.8-.1-2.7-.1-5.3,0-7.9a.22.22,0,0,0-.2-.2c.1.1,0,.2,0,.3Z"></path><path class="cls-13" d="M360.8,88.3a142.87,142.87,0,0,0,.8,16,.22.22,0,0,0,.2.2h0c.7-.1,1.6.6,1.9-.4a9,9,0,0,0,.2-2.3c0-.9.1-1.8.1-2.7a62.33,62.33,0,0,0-.9-10.6c0-.3-.4-.2-.4.1a73.16,73.16,0,0,1,.9,9.3c0,1.5,0,2.9-.1,4.4a4.1,4.1,0,0,1-.1,1.1c-.1.6,0,.9-.7,1a4.1,4.1,0,0,0-1.1-.1l.2.2a142.74,142.74,0,0,1-.7-16,.22.22,0,0,0-.2-.2c0-.1-.1,0-.1,0Z"></path><path class="cls-13" d="M343.7,104.7a97.53,97.53,0,0,1,21.6-.3c.2,0,.4-.3.4-.5s-.2-.3-.4-.4a111.38,111.38,0,0,0-21.6.3C343.1,103.9,343.1,104.8,343.7,104.7Z"></path><path class="cls-13" d="M341.5,106l13.7-.2c4.5-.1,9.2-.4,13.7-.1.2,0,.4-.3.4-.5s-.2-.3-.4-.4c-4.5-.3-9.2,0-13.7.1l-13.7.2c-.2,0-.4.3-.4.5s.2.4.4.4Z"></path><path class="cls-13" d="M351.9,85.7c.1.1.2.1.2.2s.1.2.1.3a.6.6,0,0,1-.1.4c-.1.1-.2.2-.3.2a.75.75,0,0,1-.5.1h-1V84.2h1a.9.9,0,0,1,.5.1c.1.1.2.1.3.2a.37.37,0,0,1,.1.3.6.6,0,0,1-.1.4c-.1.1-.2.2-.3.2C351.7,85.6,351.8,85.6,351.9,85.7Zm-1.3-.3h.6a.6.6,0,0,0,.4-.1.5.5,0,0,0,0-.6c-.1-.1-.2-.1-.4-.1h-.6Zm1.1,1.1a.37.37,0,0,0,.1-.3.4.4,0,0,0-.5-.5h-.6v1h.6c.1,0,.2-.1.4-.2Z"></path><path class="cls-13" d="M352.6,85.3a.78.78,0,0,1,.4-.4,1.3,1.3,0,0,1,1,0l.3.3v-.4h.4v2.1h-.4v-.4a.91.91,0,0,1-.8.4,1.05,1.05,0,0,1-.9-.5,1.08,1.08,0,0,1,0-1.1Zm1.5.1c-.1-.1-.1-.2-.3-.3a.85.85,0,0,0-.7,0c-.1.1-.2.2-.2.3a.85.85,0,0,0,0,.8c.1.1.1.2.2.3a.85.85,0,0,0,.7,0l.3-.3a.6.6,0,0,0,.1-.4c.1-.1,0-.2-.1-.4Z"></path><path class="cls-13" d="M356.8,85a.62.62,0,0,1,.2.7v1.2h-.3V85.7a.55.55,0,0,0-.2-.5.75.75,0,0,0-.9,0,.76.76,0,0,0-.2.5v1.2H355V84.8h.3v.3c.1-.1.2-.2.3-.2s.2-.1.4-.1C356.4,84.8,356.6,84.8,356.8,85Z"></path><path class="cls-13" d="M358.8,86.9,358,86v.9h-.4V84.1h.4v1.7l.8-.9h.5l-1,1.1,1,1.1Z"></path><path class="cls-30" d="M337.5,185.3h.1v.1l-.1-.1Z"></path><g id="Page-1"><g id="peach-colour-logo-_1_" data-name="peach-colour-logo-(1)"><g id="erU0btskAuc2" class="cls-31"><g id="Group"><path id="Shape" class="cls-32" d="M250.09,148.4h-108A10.19,10.19,0,0,0,132,158.59v53.92a10.19,10.19,0,0,0,10.18,10.19H190a1,1,0,0,0,1-1v-13H239.9a10.19,10.19,0,0,0,10.19-10.18Zm-4.28,4.28V198.5a5.91,5.91,0,0,1-5.91,5.9H186.74v14H142.13a5.92,5.92,0,0,1-5.91-5.91V158.59a5.92,5.92,0,0,1,5.91-5.91Z"></path></g></g><g id="Group-2" data-name="Group"><path id="erU0btskAuc6" class="cls-6" d="M203,155.21v39.62a5,5,0,0,1-4.94,4.94H162.34V216H147.09a5,5,0,0,1-5-5V160.13a5,5,0,0,1,5-4.95ZM213.16,145H147.09A15.14,15.14,0,0,0,132,160.13v50.94a15.14,15.14,0,0,0,15.14,15.14h23.18a2.29,2.29,0,0,0,2.29-2.28V210H198a15.14,15.14,0,0,0,15.14-15.14Z"></path><g id="erU0btskAuc7"><path id="Shape-2" data-name="Shape" class="cls-6" d="M330.47,207.28a5.75,5.75,0,0,1,1.77,1,6.23,6.23,0,0,1,1.36,1.49,6.47,6.47,0,0,1,.88,2,7.93,7.93,0,0,1,.32,2.32,8.14,8.14,0,0,1-.49,2.85,6.35,6.35,0,0,1-1.31,2.21,6.1,6.1,0,0,1-2.07,1.41,6.64,6.64,0,0,1-2.6.49,4.88,4.88,0,0,1-4-1.74h0v7h-3.65V207.18h3.65v1.55h0a5.1,5.1,0,0,1,4.11-1.79,6.27,6.27,0,0,1,2.06.34m-.33,9.41a3.77,3.77,0,0,0,1-2.68,3.81,3.81,0,0,0-1-2.76,3.55,3.55,0,0,0-5.07.05,7,7,0,0,0-.72,1.26,8.5,8.5,0,0,0-.26,1.52,4,4,0,0,0,.47,1.93,3.18,3.18,0,0,0,1.26,1.26,3.61,3.61,0,0,0,1.79.45,3.27,3.27,0,0,0,2.52-1"></path><path id="Shape-3" data-name="Shape" class="cls-6" d="M351.11,207.18v13.56h-3.47V219.1h-.06a4.84,4.84,0,0,1-4.05,1.86,6.6,6.6,0,0,1-2.6-.49,6.1,6.1,0,0,1-2.07-1.41,6.44,6.44,0,0,1-1.35-2.17,8.67,8.67,0,0,1,0-5.69,6.72,6.72,0,0,1,1.34-2.24,6.09,6.09,0,0,1,2-1.45,5.91,5.91,0,0,1,2.52-.53,5.05,5.05,0,0,1,4,1.76h0v-1.56Zm-4.48,9.51a3.83,3.83,0,0,0,1-2.68,3.93,3.93,0,0,0-1-2.71,3.1,3.1,0,0,0-2.44-1.08,3.31,3.31,0,0,0-2.53,1,4.26,4.26,0,0,0,0,5.44,3.5,3.5,0,0,0,4.94,0"></path><polygon id="Path" class="cls-6" points="367.33 207.18 360.01 226.24 356.31 226.24 358.72 219.89 353.29 207.18 357.09 207.18 360.41 215.56 360.46 215.56 363.56 207.18 367.33 207.18"></polygon><path id="Path-2" data-name="Path" class="cls-6" d="M389.76,208.4a6.69,6.69,0,0,1,1.26,4.45v7.9h-3.63v-7c0-2.35-.8-3.52-2.37-3.52a2.47,2.47,0,0,0-1.4.41,2.86,2.86,0,0,0-1,1.26,5.1,5.1,0,0,0-.38,2v6.79h-3.71v-7c0-2.35-.79-3.52-2.39-3.52a2.54,2.54,0,0,0-1.52.36,2.8,2.8,0,0,0-1,1.26,5.28,5.28,0,0,0-.38,2v6.78h-3.63V207.18h3.63V209h0a5.53,5.53,0,0,1,1.86-1.5,4.82,4.82,0,0,1,2.2-.53,4.21,4.21,0,0,1,4,2.19h0a5.42,5.42,0,0,1,2.14-1.62,6.18,6.18,0,0,1,2.68-.57,4.45,4.45,0,0,1,3.63,1.46"></path><path id="Shape-4" data-name="Shape" class="cls-6" d="M407,215.14h-9.51a3.4,3.4,0,0,0,1.26,1.89,3.55,3.55,0,0,0,2.22.71,4,4,0,0,0,3.24-1.53l2.36,2.19a6.51,6.51,0,0,1-2.42,1.87,8,8,0,0,1-3.45.69,7.29,7.29,0,0,1-3.57-.85,6.33,6.33,0,0,1-2.52-2.53,7.43,7.43,0,0,1-.92-3.69,7.59,7.59,0,0,1,.52-2.83,6.82,6.82,0,0,1,1.41-2.22,6.32,6.32,0,0,1,2.13-1.44,7,7,0,0,1,2.68-.51,6.74,6.74,0,0,1,3.48.89,6.14,6.14,0,0,1,2.34,2.53,7.39,7.39,0,0,1,.84,3.54,5.33,5.33,0,0,1-.11,1.26m-8.37-4.35a3.12,3.12,0,0,0-1.11,1.75h6a3.36,3.36,0,0,0-1-1.74,2.89,2.89,0,0,0-1.9-.63,3,3,0,0,0-1.93.62"></path><path id="Path-3" data-name="Path" class="cls-6" d="M420,207.27a4.06,4.06,0,0,1,2.58,2.77,8.78,8.78,0,0,1,.35,2.65v8.06h-3.63V213.6a4.15,4.15,0,0,0-.65-2.63,2.37,2.37,0,0,0-2-.75,2.79,2.79,0,0,0-2.25,1,4,4,0,0,0-.83,2.73v6.83h-3.7V207.18h3.63v1.74h0s4.07-2.42,6.31-1.65"></path><path id="Path-4" data-name="Path" class="cls-6" d="M427.8,219.82a4.83,4.83,0,0,1-1-3.37v-6.31h-1.61v-3h1.61v-4.44l3.63-.39v4.83h3.7v3h-3.7v5.76a2.45,2.45,0,0,0,.29,1.27,1,1,0,0,0,.91.41,3.55,3.55,0,0,0,1.71-.48l.94,2.92a7.36,7.36,0,0,1-1.57.63,7.66,7.66,0,0,1-2,.21,3.59,3.59,0,0,1-2.84-1.15"></path><path id="Path-5" data-name="Path" class="cls-6" d="M435.67,219l1.77-2.52a5.38,5.38,0,0,0,3.79,1.59,2.09,2.09,0,0,0,1.26-.32.93.93,0,0,0,.45-.8.69.69,0,0,0-.28-.56,2.9,2.9,0,0,0-.74-.44c-.33-.13-.81-.3-1.45-.51-.41-.13-.77-.27-1.1-.41a8.74,8.74,0,0,1-1-.48,4.16,4.16,0,0,1-.87-.62,4.23,4.23,0,0,1-.64-.76,2.82,2.82,0,0,1-.45-1,4.66,4.66,0,0,1-.15-1.18,3.6,3.6,0,0,1,.65-2.13,4.17,4.17,0,0,1,1.75-1.44,6,6,0,0,1,2.52-.51,8.24,8.24,0,0,1,2.61.42,8,8,0,0,1,2.36,1.26l-1.76,2.66a5.53,5.53,0,0,0-1.62-1.08,4,4,0,0,0-1.63-.35,1.61,1.61,0,0,0-.92.26.85.85,0,0,0-.41.75.89.89,0,0,0,.49.73,8.16,8.16,0,0,0,1.55.74,16.84,16.84,0,0,1,3,1.26,3.2,3.2,0,0,1,1.58,2.17,4.68,4.68,0,0,1,.09.91,3.87,3.87,0,0,1-1.35,3,5.83,5.83,0,0,1-3.92,1.16,8,8,0,0,1-5.49-2"></path></g><g id="erU0btskAuc16"><path id="Shape-5" data-name="Shape" class="cls-6" d="M261.3,160.43a16.1,16.1,0,0,1,5,2.72,18.49,18.49,0,0,1,3.86,4.23,19.15,19.15,0,0,1,2.52,5.54,23.33,23.33,0,0,1,.87,6.54,23,23,0,0,1-1.37,8.09,18,18,0,0,1-3.78,6.31,17.5,17.5,0,0,1-5.84,4,18.94,18.94,0,0,1-7.43,1.4,14,14,0,0,1-11.36-5h-.15v10.66a5,5,0,0,1-4.94,5h-5.38V160.13h10.32v4.41h.15a14.5,14.5,0,0,1,11.65-5,17.44,17.44,0,0,1,5.82.94m-.92,26.64a10.51,10.51,0,0,0,2.75-7.57,10.87,10.87,0,0,0-2.8-7.8,9.33,9.33,0,0,0-7-3,10.08,10.08,0,0,0-4.05.82,9.69,9.69,0,0,0-3.16,2.26,10.15,10.15,0,0,0-2.06,3.44,12.19,12.19,0,0,0-.74,4.27,11.23,11.23,0,0,0,1.32,5.5,9.34,9.34,0,0,0,3.61,3.71,10.2,10.2,0,0,0,5.05,1.26,9.27,9.27,0,0,0,7.14-2.93Z"></path><path id="Shape-6" data-name="Shape" class="cls-6" d="M315.93,182.69H289a9.62,9.62,0,0,0,3.5,5.39,10.3,10.3,0,0,0,6.31,2,11.37,11.37,0,0,0,6.43-1.85,4.86,4.86,0,0,1,6,.57l3.41,3.16a18.77,18.77,0,0,1-6.88,5.29,22.73,22.73,0,0,1-9.72,2A20.77,20.77,0,0,1,288,196.78a17.82,17.82,0,0,1-7.09-7,21.09,21.09,0,0,1-2.6-10.46,22.2,22.2,0,0,1,1.47-8,18.9,18.9,0,0,1,4-6.3,17.87,17.87,0,0,1,6.06-4,19.61,19.61,0,0,1,7.56-1.46,19.1,19.1,0,0,1,9.88,2.52,17.33,17.33,0,0,1,6.64,6.94,21.41,21.41,0,0,1,2.34,10.09,16.85,16.85,0,0,1-.26,3.69M292.2,170.22a8.83,8.83,0,0,0-3.17,5h17a9.28,9.28,0,0,0-2.93-4.93,8,8,0,0,0-5.37-1.78,8.82,8.82,0,0,0-5.48,1.67"></path><path id="Shape-7" data-name="Shape" class="cls-6" d="M360.53,160.13v38.43H355.4a4.66,4.66,0,0,1-4.66-4.65h-.17a13.75,13.75,0,0,1-11.49,5.32,18.92,18.92,0,0,1-7.35-1.44,17,17,0,0,1-5.84-4,18,18,0,0,1-3.78-6.31,24.23,24.23,0,0,1,0-16.12,19.06,19.06,0,0,1,3.78-6.31,17.5,17.5,0,0,1,12.93-5.62,14.3,14.3,0,0,1,11.36,5h.15v-4.37Zm-12.69,26.94a10.44,10.44,0,0,0,2.82-7.57,11.08,11.08,0,0,0-2.75-7.68,8.84,8.84,0,0,0-6.94-3.08,9.37,9.37,0,0,0-7.05,2.95,10.88,10.88,0,0,0-2.83,7.81,10.56,10.56,0,0,0,2.75,7.57,9.39,9.39,0,0,0,7.09,2.93,9.19,9.19,0,0,0,6.92-2.93Z"></path><path id="Path-6" data-name="Path" class="cls-6" d="M376.56,196.71a17.84,17.84,0,0,1-7-7,22.56,22.56,0,0,1,0-20.76,17.9,17.9,0,0,1,7.17-7,21.68,21.68,0,0,1,10.5-2.52,22.7,22.7,0,0,1,9.07,2,18.32,18.32,0,0,1,7.21,5.47l-6.95,6a11.26,11.26,0,0,0-8.95-4.13,10.9,10.9,0,0,0-4.19.78,9.24,9.24,0,0,0-5.31,5.52,12.18,12.18,0,0,0-.73,4.27,10.63,10.63,0,0,0,2.86,7.68,9.85,9.85,0,0,0,7.44,3,11.78,11.78,0,0,0,6.31-1.72,4.87,4.87,0,0,1,5.7.59l4,3.5a19.19,19.19,0,0,1-7.07,5,24.24,24.24,0,0,1-9.91,1.87,20.53,20.53,0,0,1-10.09-2.52"></path><path id="Path-7" data-name="Path" class="cls-6" d="M438,160.34a11.36,11.36,0,0,1,7.39,7.7,23.32,23.32,0,0,1,1,7.42V198.6H436.08V178.08c0-3.41-.61-5.81-1.82-7.22a7.19,7.19,0,0,0-5.67-2.12,8.47,8.47,0,0,0-6.61,2.64c-1.59,1.75-2.39,4.3-2.39,7.67v19.51h-10.3v-53.7h5.36a5,5,0,0,1,3.5,1.46,4.9,4.9,0,0,1,1.44,3.5v15h.17a15.32,15.32,0,0,1,5.55-4,19,19,0,0,1,12.67-.48Z"></path></g></g></g></g></svg>