<?xml version="1.0" encoding="UTF-8"?>
<svg id="Layer_1" data-name="Layer 1" xmlns="http://www.w3.org/2000/svg" version="1.1" viewBox="0 0 634.8 146.7">
  <defs>
    <style>
      .cls-1 {
        fill: #0467b5;
        stroke-width: 0px;
      }
    </style>
  </defs>
  <path class="cls-1" d="M122.5,34.8c-10.2,0-19,3.7-26.2,10.9-7.2,7.2-10.8,15.9-10.8,26.1s3.6,19,10.8,26.2c7.2,7.2,16.1,10.8,26.2,10.8s19-3.6,26.1-10.8c7.2-7.2,10.9-16.1,10.9-26.2s-3.7-19-10.9-26.1c-7.2-7.2-16-10.9-26.1-10.9ZM136.2,85.5c-3.8,3.9-8.3,5.8-13.7,5.8s-9.9-1.9-13.7-5.8c-3.9-3.8-5.8-8.3-5.8-13.7s1.9-9.9,5.8-13.7c3.8-3.8,8.3-5.7,13.7-5.7s9.9,1.9,13.7,5.7c3.8,3.8,5.7,8.3,5.7,13.7s-1.9,9.9-5.7,13.7Z"/>
  <path class="cls-1" d="M296.5,106v-34.2c0-10.2-3.6-19-10.8-26.1-7.2-7.2-16.1-10.9-26.2-10.9s-19.9,3.9-26.9,11.7l-1.2,1.3-1.2-1.3c-7.1-7.8-16.2-11.7-27-11.7s-19,3.7-26.2,10.9c-7.2,7.2-10.8,15.9-10.8,26.1v34.6c0,1.4,1.1,2.5,2.5,2.5h12.6c1.4,0,2.5-1.1,2.5-2.5v-34.6c0-5.4,1.9-9.9,5.8-13.7,3.8-3.8,8.3-5.7,13.7-5.7s9.9,1.9,13.7,5.7c3.8,3.8,5.7,8.3,5.7,13.7v34.6c0,1.4,1.1,2.5,2.5,2.5h12.7c1.4,0,2.5-1.1,2.5-2.5v-34.6c0-5.4,1.9-9.9,5.7-13.7,3.8-3.8,8.3-5.7,13.7-5.7s9.9,1.9,13.8,5.7c3.8,3.8,5.7,8.3,5.7,13.7v34.2c0,1.5,1.2,2.8,2.8,2.8h12c1.5,0,2.8-1.2,2.8-2.8Z"/>
  <path class="cls-1" d="M393,41.5c2.7,0,5-1,6.8-2.9,1.9-1.9,2.9-4.2,2.9-6.8s-1-5-2.9-6.9c-1.8-1.8-4.1-2.8-6.8-2.8s-5,.9-6.8,2.8c-1.9,1.9-2.9,4.2-2.9,6.9s.9,4.9,2.8,6.8c1.8,1.9,4.1,2.9,6.8,2.9Z"/>
  <rect class="cls-1" x="384.2" y="48.2" width="17.5" height="60.6" rx="2.8" ry="2.8"/>
  <path class="cls-1" d="M445.8,34.8c-10.2,0-19,3.7-26.2,10.9-7.2,7.2-10.8,15.9-10.8,26.1v34.2c0,1.5,1.2,2.8,2.8,2.8h12c1.5,0,2.8-1.2,2.8-2.8v-34.2c0-5.4,1.9-9.9,5.8-13.7,3.8-3.8,8.3-5.7,13.7-5.7s9.9,1.9,13.7,5.7c3.8,3.8,5.7,8.3,5.7,13.7v34.2c0,1.5,1.2,2.8,2.8,2.8h12.1c1.5,0,2.8-1.2,2.8-2.8v-34.2c0-10.2-3.7-19-10.9-26.1-7.2-7.2-16-10.9-26.1-10.9Z"/>
  <path class="cls-1" d="M492.2,108.8h48.3c6.3,0,11.8-2.3,16.3-6.7,4.4-4.5,6.7-10,6.7-16.3s-2.3-11.7-6.7-16.2c-4.5-4.4-10-6.7-16.3-6.7h-28.1c-1.5,0-2.8-.5-3.9-1.6-1-1-1.5-2.3-1.5-3.8s.5-2.7,1.5-3.7c1.1-1.1,2.4-1.6,3.9-1.6h18c1.5,0,2.8-1.2,2.8-2.8v-12.1c0-1.5-1.2-2.8-2.8-2.8h-18c-6.3,0-11.8,2.3-16.3,6.7-4.4,4.5-6.7,10-6.7,16.3s2.3,11.7,6.7,16.2c4.5,4.4,10,6.7,16.3,6.7h28.1c1.5,0,2.7.5,3.8,1.5,1,1,1.5,2.3,1.6,3.7,0,1.5-.5,2.8-1.5,4-1,1-2.3,1.6-3.8,1.6h-48.3c-1.5,0-2.8,1.2-2.8,2.8v12c0,1.5,1.2,2.8,2.8,2.8Z"/>
  <path class="cls-1" d="M76.2,4.9h-10.8c-1.5,0-2.8,1.2-2.8,2.8v64.1c0,10.1-9.2,20.1-20.1,20.1-12.7,0-20.3-10.2-20.1-20.1.3-12.2,11.6-21.6,23.8-19,2.5.5,4.7,1.6,4.9,1.7h.4c.9.3,1.7-.4,1.6-1.3v-14.9c0-.9-.2-2-1.5-2.2,0,0-1.3-.4-4.2-.9-11.1-1.6-23.4,1.8-31.7,10.5-7.3,7.6-10.8,15.7-10.8,26.1s3.9,19.4,11.1,26.5c7.2,7.2,16.5,10.5,26.7,10.5,10.5,0,20.2-2.2,28-12.3,5.5-7.1,8.2-15.9,8.2-24.9V7.7c0-1.5-1.2-2.8-2.8-2.8Z"/>
  <path class="cls-1" d="M349.6,88.7h-.4c-.2.2-2.4,1.3-4.9,1.8-12.2,2.6-23.5-6.8-23.8-19-.2-9.8,7.4-20.1,20.1-20.1,10.9,0,20.1,10,20.1,20.1v35c0,1.5,1.2,2.8,2.8,2.8h10.8c1.5,0,2.8-1.2,2.8-2.8v-34.4c0-9.2-2.7-18.2-8.4-25.4-7.8-10-17.5-12.2-27.9-12.2-10.2,0-19.5,3.3-26.7,10.5-7.2,7.2-11.1,16-11.1,26.5s3.5,18.5,10.8,26.1c8.3,8.7,20.7,12.1,31.7,10.5,3-.4,4.2-.9,4.2-.9,1.3-.2,1.4-1.3,1.5-2.2v-14.9c0-.9-.8-1.6-1.6-1.4Z"/>
  <g>
    <path class="cls-1" d="M7,140.6v-12.9c0-.7.4-1,1-1h1.3c.7,0,1,.4,1,1v12.9c0,.7-.4,1-1,1h-1.3c-.7,0-1-.4-1-1Z"/>
    <path class="cls-1" d="M30,127.7v.8c0,.7-.4,1-1,1h-3.4v11c0,.7-.4,1-1,1h-1.3c-.7,0-1-.4-1-1v-11h-3.4c-.7,0-1-.4-1-1v-.8c0-.7.4-1,1-1h10.2c.7,0,1,.4,1,1Z"/>
    <path class="cls-1" d="M45.6,140.4l5-12.9c.2-.5.6-.8,1.2-.8h1.5c.6,0,1,.3,1.2.8l5,12.9c.3.7,0,1.2-.8,1.2h-1.4c-.6,0-1-.3-1.2-.8l-.7-2h-5.7l-.7,1.9c-.2.6-.6.8-1.2.8h-1.3c-.8,0-1.1-.5-.8-1.2ZM54.7,136.1l-2.2-6-2.2,6h4.4Z"/>
    <path class="cls-1" d="M67,140.6v-12.9c0-.7.4-1,1-1h1.3c.7,0,1,.4,1,1v11h5.7c.7,0,1,.4,1,1v.8c0,.7-.4,1-1,1h-8c-.7,0-1-.4-1-1Z"/>
    <path class="cls-1" d="M84.5,140.6v-12.9c0-.7.4-1,1-1h1.3c.7,0,1,.4,1,1v11h5.7c.7,0,1,.4,1,1v.8c0,.7-.4,1-1,1h-8c-.7,0-1-.4-1-1Z"/>
    <path class="cls-1" d="M111.1,138.6c-.3-.6,0-1.1.7-1.3l.9-.2c.6-.1.9.1,1.3.7.5.8,1.4,1.3,2.7,1.3s2.4-.6,2.4-1.6-.6-1.3-1.7-1.7l-1.9-.7c-1.8-.6-3.9-1.9-4-4.2,0-2.7,2.4-4.4,5.3-4.4s4,1,4.8,2.7c.3.6,0,1.1-.6,1.3l-.9.2c-.6.2-1,0-1.3-.6-.4-.6-1-1-1.9-1s-2,.5-2,1.5.2,1.1,1.6,1.6l1.9.7c2.9,1,4,2.5,4,4.4,0,2.9-2.5,4.5-5.7,4.5s-4.8-1.2-5.6-3.2Z"/>
    <path class="cls-1" d="M141,127.7v.8c0,.7-.4,1-1,1h-3.4v11c0,.7-.4,1-1,1h-1.3c-.7,0-1-.4-1-1v-11h-3.4c-.7,0-1-.4-1-1v-.8c0-.7.4-1,1-1h10.2c.7,0,1,.4,1,1Z"/>
    <path class="cls-1" d="M145.6,140.4l5-12.9c.2-.5.6-.8,1.2-.8h1.5c.6,0,1,.3,1.2.8l5,12.9c.3.7,0,1.2-.8,1.2h-1.4c-.6,0-1-.3-1.2-.8l-.7-2h-5.7l-.7,1.9c-.2.6-.6.8-1.2.8h-1.3c-.8,0-1.1-.5-.8-1.2ZM154.7,136.1l-2.2-6-2.2,6h4.4Z"/>
    <path class="cls-1" d="M197.7,127.7v.8c0,.7-.4,1-1,1h-3.4v11c0,.7-.4,1-1,1h-1.3c-.7,0-1-.4-1-1v-11h-3.4c-.7,0-1-.4-1-1v-.8c0-.7.4-1,1-1h10.2c.7,0,1,.4,1,1Z"/>
    <path class="cls-1" d="M204.2,138.6c-.3-.6,0-1.1.7-1.3l.9-.2c.6-.1.9.1,1.3.7.5.8,1.4,1.3,2.7,1.3s2.4-.6,2.4-1.6-.6-1.3-1.7-1.7l-1.9-.7c-1.8-.6-3.9-1.9-4-4.2,0-2.7,2.4-4.4,5.3-4.4s4,1,4.8,2.7c.3.6,0,1.1-.6,1.3l-.9.2c-.6.2-1,0-1.3-.6-.4-.6-1-1-1.9-1s-2,.5-2,1.5.2,1.1,1.6,1.6l1.9.7c2.9,1,4,2.5,4,4.4,0,2.9-2.5,4.5-5.7,4.5s-4.8-1.2-5.6-3.2Z"/>
    <path class="cls-1" d="M236.2,140.7l-4-12.9c-.2-.7.1-1.2.9-1.2h1.3c.6,0,1,.3,1.1.9l2.5,8.4,2.4-7.9c.2-.6.6-.9,1.1-.9h.7c.6,0,1,.3,1.1.9l2.4,7.9,2.5-8.4c.1-.6.6-.9,1.1-.9h1.3c.7,0,1.1.5.9,1.2l-4,12.9c-.2.6-.6.9-1.2.9h-.9c-.6,0-1-.3-1.1-.9l-2.5-8.3-2.5,8.3c-.2.6-.6.9-1.1.9h-.9c-.6,0-1-.3-1.2-.9Z"/>
    <path class="cls-1" d="M259.5,140.6v-12.9c0-.7.4-1,1-1h1.3c.7,0,1,.4,1,1v12.9c0,.7-.4,1-1,1h-1.3c-.7,0-1-.4-1-1Z"/>
    <path class="cls-1" d="M282.5,127.7v.8c0,.7-.4,1-1,1h-3.4v11c0,.7-.4,1-1,1h-1.3c-.7,0-1-.4-1-1v-11h-3.4c-.7,0-1-.4-1-1v-.8c0-.7.4-1,1-1h10.2c.7,0,1,.4,1,1Z"/>
    <path class="cls-1" d="M289.9,140.6v-12.9c0-.7.4-1,1-1h1.3c.7,0,1,.4,1,1v5.4h5.6v-5.4c0-.7.4-1,1-1h1.3c.7,0,1,.4,1,1v12.9c0,.7-.4,1-1,1h-1.3c-.7,0-1-.4-1-1v-4.7h-5.6v4.7c0,.7-.4,1-1,1h-1.3c-.7,0-1-.4-1-1Z"/>
    <path class="cls-1" d="M319.6,140.4l5-12.9c.2-.5.6-.8,1.2-.8h1.5c.6,0,1,.3,1.2.8l5,12.9c.3.7,0,1.2-.8,1.2h-1.4c-.6,0-1-.3-1.2-.8l-.7-2h-5.7l-.7,1.9c-.2.6-.6.8-1.2.8h-1.3c-.8,0-1.1-.5-.8-1.2ZM328.8,136.1l-2.2-6-2.2,6h4.4Z"/>
    <path class="cls-1" d="M350.9,140.6v-12.9c0-.7.4-1,1-1h4.9c4.5,0,7.6,3.3,7.6,7.5s-3.1,7.5-7.6,7.5h-4.9c-.7,0-1-.4-1-1ZM356.5,138.7c2.8,0,4.6-2,4.6-4.6s-1.7-4.6-4.6-4.6h-2.2v9.2h2.2Z"/>
    <path class="cls-1" d="M371.3,134.1c0-4.2,3.2-7.7,7.9-7.7s7.9,3.5,7.9,7.7-3.2,7.7-7.9,7.7-7.9-3.5-7.9-7.7ZM383.7,134.1c0-2.6-1.9-4.7-4.5-4.7s-4.5,2.1-4.5,4.7,1.9,4.7,4.5,4.7,4.5-2.1,4.5-4.7Z"/>
    <path class="cls-1" d="M394.4,140.5l1.2-12.8c0-.6.4-1,1.1-1h1.5c.6,0,1,.3,1.2.8l3.8,9.3,3.8-9.3c.2-.6.6-.8,1.2-.8h1.6c.6,0,1,.3,1.1,1l1.2,12.8c0,.7-.3,1.1-1,1.1h-1.3c-.7,0-1-.3-1.1-1l-.7-8.1-3.3,8.1c-.2.6-.6.8-1.2.8h-.6c-.6,0-1-.3-1.2-.8l-3.3-8.1-.7,8.1c0,.6-.4,1-1.1,1h-1.3c-.7,0-1.1-.4-1-1.1Z"/>
    <path class="cls-1" d="M419,140.4l5-12.9c.2-.5.6-.8,1.2-.8h1.5c.6,0,1,.3,1.2.8l5,12.9c.3.7,0,1.2-.8,1.2h-1.4c-.6,0-1-.3-1.2-.8l-.7-2h-5.7l-.7,1.9c-.2.6-.6.8-1.2.8h-1.3c-.8,0-1.1-.5-.8-1.2ZM428.1,136.1l-2.2-6-2.2,6h4.4Z"/>
    <path class="cls-1" d="M440.4,140.6v-12.9c0-.7.4-1,1-1h1.3c.7,0,1,.4,1,1v12.9c0,.7-.4,1-1,1h-1.3c-.7,0-1-.4-1-1Z"/>
    <path class="cls-1" d="M452.4,140.6v-12.9c0-.7.4-1,1-1h.8c.6,0,.9.2,1.3.6l6,8.2v-7.8c0-.7.4-1,1-1h1.3c.7,0,1,.4,1,1v12.9c0,.7-.4,1-1,1h-.8c-.5,0-.9-.2-1.2-.6l-6-8.3v7.9c0,.7-.4,1-1,1h-1.3c-.7,0-1-.4-1-1Z"/>
    <path class="cls-1" d="M484,140.6v-12.9c0-.7.4-1,1-1h.8c.6,0,.9.2,1.3.6l6,8.2v-7.8c0-.7.4-1,1-1h1.3c.7,0,1,.4,1,1v12.9c0,.7-.4,1-1,1h-.8c-.5,0-.9-.2-1.2-.6l-6-8.3v7.9c0,.7-.4,1-1,1h-1.3c-.7,0-1-.4-1-1Z"/>
    <path class="cls-1" d="M504,140.4l5-12.9c.2-.5.6-.8,1.2-.8h1.5c.6,0,1,.3,1.2.8l5,12.9c.3.7,0,1.2-.8,1.2h-1.4c-.6,0-1-.3-1.2-.8l-.7-2h-5.7l-.7,1.9c-.2.6-.6.8-1.2.8h-1.3c-.8,0-1.1-.5-.8-1.2ZM513.1,136.1l-2.2-6-2.2,6h4.4Z"/>
    <path class="cls-1" d="M525,140.5l1.2-12.8c0-.6.4-1,1.1-1h1.5c.6,0,1,.3,1.2.8l3.8,9.3,3.8-9.3c.2-.6.6-.8,1.2-.8h1.6c.6,0,1,.3,1.1,1l1.2,12.8c0,.7-.3,1.1-1,1.1h-1.3c-.7,0-1-.3-1.1-1l-.7-8.1-3.3,8.1c-.2.6-.6.8-1.2.8h-.6c-.6,0-1-.3-1.2-.8l-3.3-8.1-.7,8.1c0,.6-.4,1-1.1,1h-1.3c-.7,0-1.1-.4-1-1.1Z"/>
    <path class="cls-1" d="M554.1,129.5v3.4h4.8c.7,0,1,.4,1,1v.6c0,.7-.4,1-1,1h-4.8v3.2h5.7c.7,0,1,.4,1,1v.8c0,.7-.4,1-1,1h-8c-.7,0-1-.4-1-1v-12.9c0-.7.4-1,1-1h8c.7,0,1,.4,1,1v.8c0,.7-.4,1-1,1h-5.7Z"/>
    <path class="cls-1" d="M177.7,141.6h-.6c-.8,0-1.2-.4-1.6-1l-2-3.8c-.2,0-3.2,0-3.2,0v3.4c0,.9-.5,1.4-1.4,1.4h-.4c-.9,0-1.4-.5-1.4-1.4v-12.3c0-.9.5-1.4,1.4-1.4h3.6c4.5,0,6.3,1.6,6.3,5s-.4,3.5-2,4.4,2.2,4,2.2,4c.7,1.1.4,1.7-.9,1.7ZM175.3,131.8c0-1.9-1-2.5-3.4-2.5h-1.7v4.9h1.8c2.3,0,3.3-.5,3.3-2.4Z"/>
  </g>
  <g>
    <path class="cls-1" d="M538,49.8c0-1.6,1.3-2.9,3.1-2.9s3.1,1.3,3.1,2.9-1.4,2.8-3.1,2.8-3.1-1.2-3.1-2.8Z"/>
    <path class="cls-1" d="M556.1,52.3c-5.4,0-9.4-3.5-9.4-8.4s3.9-8.6,9.4-8.6,3.2.2,5.2,1.4c.3.2.5.5.6.7,0,.3,0,.7-.4,1.1l-.5.6c-.3.4-.6.6-1,.6s-.6,0-.9-.2c-1.1-.5-2.2-.6-2.7-.6-3,0-5.2,2.1-5.2,4.9s2.2,4.9,5.2,4.9,1.6,0,2.7-.6c.4-.2.7-.2.9-.2.4,0,.7.2,1,.6l.5.7c.3.3.4.7.3,1,0,.4-.4.7-.8.9-1.8,1-3.7,1.2-4.9,1.2Z"/>
    <path class="cls-1" d="M573.2,52.3c-5.1,0-9-3.7-9-8.5s4-8.5,9-8.5,9,3.7,9,8.5-4,8.5-9,8.5ZM573.2,39c-2.7,0-4.8,2.2-4.8,4.9s2.1,4.9,4.8,4.9,4.8-2.2,4.8-4.9-2.1-4.9-4.8-4.9Z"/>
    <path class="cls-1" d="M584.7,49.8c0-1.6,1.3-2.9,3.1-2.9s3.1,1.3,3.1,2.9-1.4,2.8-3.1,2.8-3.1-1.2-3.1-2.8Z"/>
    <path class="cls-1" d="M596.8,52c-.9,0-1.3-.4-1.3-1.3v-.2c0-.7.2-1.2.7-1.8l8.5-9.1c0,0,0-.2,0-.3,0,0-.1-.2-.2-.2h-7.3c-.9,0-1.3-.4-1.3-1.3v-.8c0-.9.4-1.3,1.3-1.3h12.9c.9,0,1.3.4,1.3,1.3v.2c0,.7-.2,1.2-.7,1.8l-8.5,9.1c0,0,0,.2,0,.3,0,0,.1.2.2.2h8.2c.9,0,1.3.4,1.3,1.3v.8c0,.9-.5,1.3-1.3,1.3h-13.9Z"/>
    <path class="cls-1" d="M626.9,52.1c-.4,0-.8-.3-.8-.8v-7.6c0-2.2-2-4.2-4.2-4.2-1.5,0-2.5.7-3.1,1.2-.8.8-1.2,1.9-1.2,3,0,2.3,1.9,4.1,4.2,4.1s.6,0,.9,0c.4,0,.8-.2.9-.3,0,0,.2,0,.2,0,0,0,0,0,0,0,.2,0,.3,0,.4.1,0,0,.1.2.1.3v3.2c0,.4-.1.6-.4.6,0,0,0,0,0,0,0,0-.4,0-.9.2-.4,0-.8,0-1.2,0-2.2,0-4.4-.9-5.8-2.4-1.7-1.7-2.4-3.5-2.4-5.8s.8-4.2,2.4-5.9c1-1,2.3-1.7,3.7-2.1.8-.2,1.5-.3,2.2-.3,2.2,0,4.2.9,5.8,2.6,1.4,1.6,2.2,3.7,2.2,6v7.2c0,.4-.3.8-.8.8h-2.3Z"/>
  </g>
</svg>