              <svg id="Layer_1" data-name="HostAfrica Logo" xmlns="http://www.w3.org/2000/svg" version="1.1" xmlns:xlink="http://www.w3.org/1999/xlink" viewBox="0 0 205 35" width="205" height="35" role="img" aria-label="HOSTAFRICA Logo">
                <title>HOSTAFRICA Logo</title>
                <defs>
                  <style>
                    .cls-1 {
                      fill: url(#linear-gradient);
                    }

                    .cls-1,
                    .cls-2,
                    .cls-3 {
                      stroke-width: 0px;
                    }

                    .cls-2 {
                      fill: #09101e;
                    }

                    .cls-3 {
                      fill: url(#radial-gradient);
                    }
                  </style>
                  <linearGradient id="linear-gradient" x1="20.2" y1="3.7" x2="24.9" y2="17" gradientTransform="translate(0 37.6) scale(1 -1)" gradientUnits="userSpaceOnUse">
                    <stop offset="0" stop-color="#019be0" />
                    <stop offset=".2" stop-color="#0296dc" />
                    <stop offset=".4" stop-color="#078ad2" />
                    <stop offset=".6" stop-color="#1076c1" />
                    <stop offset=".8" stop-color="#1c5aa9" />
                    <stop offset="1" stop-color="#2c368b" />
                    <stop offset="1" stop-color="#2e3388" />
                  </linearGradient>
                  <radialGradient id="radial-gradient" cx="18.3" cy="26.2" fx="18.3" fy="26.2" r="17.8" gradientTransform="translate(0 37.6) scale(1 -1)" gradientUnits="userSpaceOnUse">
                    <stop offset="0" stop-color="#92c01f" />
                    <stop offset=".2" stop-color="#8ebe1f" />
                    <stop offset=".4" stop-color="#84bb21" />
                    <stop offset=".5" stop-color="#74b524" />
                    <stop offset=".7" stop-color="#5cad27" />
                    <stop offset=".8" stop-color="#3ea22d" />
                    <stop offset=".9" stop-color="#199533" />
                    <stop offset=".9" stop-color="#109235" />
                  </radialGradient>
                </defs>
                <g id="b">
                  <g id="c">
                    <g>
                      <g>
                        <polygon class="cls-1" points="22.4 35 33.8 23.2 16.6 16.2 22.4 35" />
                        <polygon class="cls-3" points="0 9.4 33.8 23.2 33.8 6.9 16.9 0 0 9.4" />
                      </g>
                      <g>
                        <path class="cls-2" d="M56.9,6.8v16.5h-2.3v-7.3h-9.4v7.3h-2.3V6.8h2.3v7.1h9.4v-7.1s2.3,0,2.3,0Z" />
                        <path class="cls-2" d="M64.3,22.4c-1.3-.7-2.4-1.7-3.1-3-.8-1.3-1.1-2.7-1.1-4.3s.4-3,1.1-4.3,1.8-2.3,3.1-3c1.3-.7,2.8-1.1,4.5-1.1s3.1.4,4.4,1.1c1.3.7,2.4,1.7,3.1,3,.7,1.3,1.1,2.7,1.1,4.3s-.4,3-1.1,4.3c-.8,1.3-1.8,2.3-3.1,3s-2.8,1.1-4.4,1.1-3.1-.4-4.5-1.1h0ZM72,20.6c1-.5,1.7-1.3,2.3-2.3s.8-2,.8-3.2-.3-2.3-.8-3.2c-.6-1-1.3-1.7-2.3-2.3s-2-.8-3.2-.8-2.3.3-3.3.8c-1,.5-1.7,1.3-2.3,2.3-.6,1-.8,2-.8,3.2s.3,2.3.8,3.2,1.3,1.7,2.3,2.3c1,.5,2.1.8,3.3.8s2.3-.3,3.2-.8Z" />
                        <path class="cls-2" d="M81.7,22.9c-1.1-.4-2-.9-2.7-1.5l.9-1.8c.6.6,1.4,1,2.4,1.4,1,.4,2,.5,3,.5s2.4-.2,3-.7c.7-.5,1-1.1,1-1.8s-.2-1-.5-1.4-.8-.6-1.4-.8-1.3-.4-2.3-.6c-1.2-.3-2.2-.6-3-.9s-1.4-.8-1.9-1.4-.8-1.5-.8-2.5.2-1.7.7-2.4c.5-.7,1.2-1.3,2.1-1.7.9-.4,2.1-.6,3.5-.6s1.9.1,2.9.4c.9.3,1.7.6,2.4,1.1l-.8,1.9c-.7-.4-1.4-.8-2.2-1-.8-.2-1.5-.3-2.3-.3-1.3,0-2.3.2-3,.7-.7.5-1,1.1-1,1.9s.2,1,.6,1.4c.4.4.8.6,1.4.8.6.2,1.3.4,2.3.6,1.2.3,2.2.6,3,.9s1.4.8,1.9,1.4.8,1.4.8,2.5-.2,1.6-.7,2.4-1.2,1.3-2.1,1.7c-1,.4-2.1.6-3.5.6s-2.4-.2-3.6-.6h0Z" />
                        <path class="cls-2" d="M98.3,8.9h-5.6v-2h13.5v2h-5.6v14.4h-2.3v-14.4Z" />
                        <path class="cls-2" d="M119.6,19.8h-7.6l-1.5,3.5h-3.9l7.3-16.5h3.7l7.3,16.5h-4l-1.5-3.5h0ZM118.5,16.9l-2.6-6.3-2.6,6.3h5.2,0Z" />
                        <path class="cls-2" d="M131.5,9.9v4.4h7.6v3.1h-7.6v6h-3.8V6.8h12.4v3.1h-8.6Z" />
                        <path class="cls-2" d="M154.1,23.3l-3.2-4.6h-3.5v4.6h-3.8V6.8h7.1c1.5,0,2.7.2,3.8.7,1.1.5,1.9,1.2,2.5,2.1.6.9.9,2,.9,3.2s-.3,2.3-.9,3.2c-.6.9-1.4,1.6-2.5,2l3.7,5.3h-4.1ZM153.1,10.7c-.6-.5-1.5-.7-2.6-.7h-3.1v5.7h3.1c1.1,0,2-.3,2.6-.8.6-.5.9-1.2.9-2.1s-.3-1.6-.9-2.1Z" />
                        <path class="cls-2" d="M161.8,6.8h3.8v16.5h-3.8V6.8Z" />
                        <path class="cls-2" d="M173.8,22.5c-1.4-.7-2.4-1.7-3.2-3s-1.2-2.8-1.2-4.4.4-3.1,1.2-4.4,1.8-2.3,3.2-3c1.4-.7,2.9-1.1,4.6-1.1s2.7.3,3.8.8c1.1.5,2.1,1.2,2.9,2.2l-2.4,2.3c-1.1-1.3-2.5-1.9-4.1-1.9s-1.9.2-2.7.7c-.8.4-1.4,1.1-1.9,1.9-.4.8-.7,1.7-.7,2.7s.2,1.9.7,2.7c.4.8,1.1,1.4,1.9,1.9.8.4,1.7.7,2.7.7,1.6,0,3-.7,4.1-2l2.4,2.3c-.8,1-1.7,1.7-2.9,2.2-1.2.5-2.4.8-3.9.8s-3.2-.4-4.5-1.1Z" />
                        <path class="cls-2" d="M199.6,19.8h-7.6l-1.5,3.5h-3.9l7.3-16.5h3.7l7.3,16.5h-4l-1.5-3.5ZM198.4,16.9l-2.6-6.3-2.6,6.3h5.2Z" />
                      </g>
                      <g>
                        <path class="cls-2" d="M128.3,33.6c-.4,0-.9,0-1.2-.2-.4-.1-.7-.3-1-.5l.3-.8c.3.2.5.3.9.4s.7.2,1,.2.7,0,.9-.2c.2-.1.3-.3.3-.5s0-.3-.2-.4-.4-.2-.7-.3l-.9-.2c-1-.2-1.5-.7-1.5-1.6s0-.7.3-.9.4-.5.8-.6c.3-.1.7-.2,1.1-.2s.8,0,1.1.2.6.3.8.5l-.3.8c-.4-.4-1-.6-1.6-.6s-.7,0-.9.2c-.2.2-.3.4-.3.6s0,.3.2.5c.1.1.3.2.7.3l.9.2c.5.1.9.3,1.2.5.3.2.4.6.4,1s0,.6-.3.9c-.2.3-.4.5-.8.6s-.7.2-1.2.2h0Z" />
                        <path class="cls-2" d="M135.6,33.6c-.5,0-1-.1-1.4-.4-.4-.2-.7-.6-1-1s-.3-1-.3-1.5.1-1.1.3-1.5.5-.8,1-1c.4-.2.9-.4,1.4-.4s1,.1,1.4.4c.4.2.7.6,1,1s.3.9.3,1.5-.1,1.1-.3,1.6c-.2.4-.5.8-1,1-.4.2-.9.4-1.4.4h0ZM135.6,32.7c.5,0,.9-.2,1.2-.5.3-.4.4-.9.4-1.5s-.1-1.1-.4-1.5c-.3-.4-.7-.5-1.2-.5s-.9.2-1.2.5c-.3.4-.4.9-.4,1.5s.1,1.1.4,1.5c.3.4.7.5,1.2.5h0Z" />
                        <path class="cls-2" d="M143.4,33.6c-.8,0-1.4-.2-1.8-.6-.4-.4-.6-1-.6-1.8v-3.3h1v3.3c0,.5.1.9.4,1.1s.6.4,1,.4c.9,0,1.4-.5,1.4-1.5v-3.3h1v3.3c0,.8-.2,1.4-.6,1.8-.4.4-1,.6-1.8.6Z" />
                        <path class="cls-2" d="M150,33.5v-4.8h-2v-.9h4.9v.9h-2v4.8h-1Z" />
                        <path class="cls-2" d="M155.4,33.5v-5.7h1v2.4h2.9v-2.4h1v5.7h-1v-2.5h-2.9v2.5h-1Z" />
                        <path class="cls-2" d="M166.4,33.5l2.6-5.7h.8l2.6,5.7h-1l-.6-1.3h-2.8l-.6,1.3h-1ZM169.4,29l-1,2.4h2.1l-1-2.4h0Z" />
                        <path class="cls-2" d="M174.7,33.5v-5.7h3.7v.8h-2.7v1.6h2.5v.8h-2.5v2.4h-1,0Z" />
                        <path class="cls-2" d="M180.8,33.5v-5.7h2.5c.6,0,1.1.1,1.4.4.3.3.5.7.5,1.3s-.1.8-.3,1c-.2.3-.5.5-.9.6.3,0,.5.3.7.6l.9,1.7h-1.1l-1-1.8c0-.2-.2-.3-.3-.4-.1,0-.3,0-.5,0h-.8v2.3h-1ZM181.9,30.5h1.3c.8,0,1.1-.3,1.1-.9s-.4-.9-1.1-.9h-1.3v1.8h0Z" />
                        <path class="cls-2" d="M188.1,33.5v-5.7h1v5.7h-1Z" />
                        <path class="cls-2" d="M194.6,33.6c-.6,0-1.1-.1-1.5-.4-.4-.2-.7-.6-1-1-.2-.4-.3-1-.3-1.5s.1-1.1.3-1.5.5-.8,1-1,.9-.4,1.5-.4.7,0,1.1.2.6.3.8.5l-.3.8c-.2-.2-.5-.4-.7-.4s-.5-.1-.8-.1c-.6,0-1,.2-1.3.5s-.4.8-.4,1.5.2,1.1.4,1.5c.3.3.7.5,1.3.5s.6,0,.8-.1.5-.2.7-.4l.3.8c-.2.2-.5.4-.8.5-.3.1-.7.2-1.1.2h0Z" />
                        <path class="cls-2" d="M198.6,33.5l2.6-5.7h.8l2.6,5.7h-1l-.6-1.3h-2.8l-.6,1.3h-1ZM201.6,29l-1,2.4h2.1l-1-2.4h0Z" />
                      </g>
                    </g>
                  </g>
                </g>
              </svg>
